<svg xmlns="http://www.w3.org/2000/svg" xmlns:xlink="http://www.w3.org/1999/xlink" version="1.0" viewBox="0 0 340.000000 250.000000" preserveAspectRatio="xMidYMid meet" color-interpolation-filters="sRGB"> <rect x="0" y="0" width="100%" height="100%" fill="transparent" fill-opacity="1"/>  <g transform="translate(83.27000427246094,39.75196838378906)"><g fill="#ffffff" hollow-target="textNormalTran"><g opacity="0.55" transform="translate(44.72999572753906,0)"><g><rect fill="#ffffff" fill-opacity="0" stroke-width="2" x="0" y="0" width="83.99999999999994" height="170.49606235284554"/> <svg filter="url(#colors6548676869)" x="0" y="0" width="83.99999999999994" height="170.49606235284554" filtersec="colorsf3314128717"><svg xmlns="http://www.w3.org/2000/svg" xmlns:xlink="http://www.w3.org/1999/xlink" version="1.1" x="0px" y="0px" viewBox="25.816890716552734 -0.00038248300552368164 49.23200607299805 99.9263916015625" enable-background="new 0 0 100 100" xml:space="preserve"><path d="M65.325,64.564c-0.367-0.104-0.816-0.162-1.347-0.229l-0.019-0.279c-0.006-0.102-0.051-0.684-0.13-1.414  C64.666,63.049,65.139,63.703,65.325,64.564z M56.404,65.398l-0.059-0.271c-0.033-0.146-0.146-0.703-0.265-1.395  c-0.69,0.621-0.968,1.381-0.908,2.258C55.498,65.791,55.913,65.609,56.404,65.398z M58.329,63.589  c-0.429,0.06-1.451-1.411-1.931-3.296l-0.328,0.121c-0.297,0.645,0.406,4.221,0.502,4.662c0.289,1.326,0.744,2.968,1.48,4.895  c0.059,0.156,0.118,0.313,0.184,0.473l0.252-0.473l0.779-1.465l-0.039-0.041c-0.119-0.127-0.164-0.336-0.172-0.388l-0.646-4.499  L58.329,63.589z M66.373,71.818c-0.604-0.803-1.328-1.381-1.789-1.709c0.004-0.047,0.008-0.092,0.014-0.139  c0.139-1.582,0.197-3.168,0.133-4.752c-0.006-0.156-0.24-0.146-0.234,0.012c0.068,1.582,0.006,3.166-0.139,4.74  c-0.002,0.027-0.006,0.055-0.008,0.084l-0.535-0.063c0-0.007,0-0.015,0-0.021c0.228-2.152,0.246-3.949,0.174-5.398  c1.351,0.171,1.959,0.3,2.179,0.992c0.002,0.008,0.461,1.574,0.351,4.404v0.002C66.496,70.536,66.451,71.152,66.373,71.818z   M65.18,66.012l-0.33,0.006c0.006,0.51,0.002,1.058-0.019,1.642l0.332,0.012C65.184,67.081,65.186,66.527,65.18,66.012z   M59.3,73.512c-0.112-0.248-0.233-0.516-0.358-0.802l-0.506,0.237c0.153,0.354,0.312,0.707,0.476,1.059  C59.018,73.781,59.146,73.611,59.3,73.512z M54.639,67.184c0,0.008-0.006,1.029,0.432,2.787c0.229,0.914,0.572,2.025,1.101,3.297  c0.362-0.928,0.899-1.721,1.249-2.154c-0.146-0.379-0.292-0.76-0.432-1.143c-0.41-1.152-0.771-2.326-1.061-3.533  c0-0.064,0.053-0.117,0.117-0.117c0.066,0,0.118,0.053,0.118,0.119c0.291,1.199,0.655,2.375,1.075,3.531  c0.123,0.346,0.253,0.688,0.387,1.029l0.496-0.209c-0.109-0.279-0.219-0.553-0.318-0.82c-0.635-1.668-1.057-3.119-1.344-4.339  C55.21,66.166,54.658,66.457,54.639,67.184z M56.191,59.135l-1.069,0.342c0.226,1.078,0.744,3.58,0.851,4.084l0.07-0.061  c-0.096-0.587-0.189-1.241-0.238-1.812l-0.33-1.602c-0.016-0.068,0.032-0.143,0.106-0.163l0.694-0.202  c-0.021-0.115-0.043-0.229-0.06-0.346C56.205,59.299,56.197,59.219,56.191,59.135z M57.943,89.085l-1.396,0.218v3.137v0.078  l0.687,0.146l0.096-0.225l0.613-1.43C57.958,90.716,57.95,89.689,57.943,89.085z M61.354,63.166l-2.711,0.379l0.648,4.499  c0.004,0.038,0.014,0.073,0.025,0.108c0.021,0.061,0.053,0.115,0.092,0.164c0.057,0.068,0.129,0.121,0.254,0.172  c0.025,0.008,0.051,0.018,0.078,0.02c0.113,0.012,0.27-0.012,0.389-0.029c0,0,1.441-0.193,1.529-0.231  c0.086-0.036,0.158-0.095,0.215-0.165c0.049-0.062,0.084-0.135,0.102-0.21c0.031-0.134,0.004-0.251-0.016-0.386L61.354,63.166z   M58.084,95.341v-0.503c-0.527,0.021-0.756,0.266-0.895,0.645c-0.17,0.475-0.196,1.011-0.289,1.51  c0.119-0.049,0.232-0.112,0.349-0.191C57.357,96.087,57.484,95.514,58.084,95.341z M65.962,85.875  c0.021-0.004,0.043-0.004,0.063-0.002l-0.229-0.322c-0.024-0.035-0.08-0.057-0.103-0.055l-5.104,0.718  c-0.021,0.005-0.069,0.041-0.084,0.083l-0.071,0.197h1.433c0.016-0.027,0.045-0.051,0.088-0.057L65.962,85.875z M62.087,91.092  v0.328l0.101,0.086h2.17l0.102-0.086v-0.328h-1.107h-0.158H62.087z M64.091,95.062l0.507-0.705H61.95l0.504,0.705H64.091z   M66.585,90.418l-0.168-0.258h-6.224l-0.168,0.258l-0.002,0.227h3.17h0.156h3.238L66.585,90.418z M66.646,92.229H66.5v0.213v0.541  c0,0.225-0.33,0.225-0.33,0l-0.021-0.541l-0.01-0.213c-0.062,0-0.117-0.055-0.117-0.119v-0.572h-1.34l-0.236,0.205h-2.344  l-0.238-0.205h-1.34v0.572c0,0.064-0.053,0.119-0.146,0.119v0.213v0.541c0,0.225-0.334,0.225-0.334,0v-0.543v-0.213H59.9  l-0.143,0.213l-1.439,2.224v1.008c0.297-0.396,0.564-0.803,0.801-1.104c0.25-0.323,0.389-0.438,0.686-0.438h0.867h1.049h3.105h1.049  h0.867c0.299,0,0.438,0.115,0.686,0.438c0.17,0.222,0.406,0.559,0.801,1.063v-0.967l-1.439-2.224L66.646,92.229z M58.178,88.745  c0.002,0.301,0.01,1.112,0.008,1.702l0.729-1.702H58.178z M62.673,77.452l-0.014-0.923c0,0.002,0.016-0.059-0.142-0.033  l-1.531,0.232l0.152,0.562l0.059,0.22l0.262,0.965l0.021,0.082l0.043,0.09c0.014-0.002,1.125-0.153,1.166-0.188l-0.002-0.223  l-0.01-0.539L62.673,77.452z M61.725,68.469c-0.236,0.061-1.562,0.242-1.562,0.242c-0.156,0.021-0.306,0.055-0.461,0.029  c-0.037-0.008-0.074-0.018-0.111-0.029c-0.047-0.016-0.092-0.035-0.135-0.061l-0.705,1.32l-0.401,0.752l0.166,0.404  c1.346,3.227,2.217,4.773,2.562,5.335l1.463-0.206c0.176-0.637,0.586-2.367,0.989-5.834l0.052-0.451l0.008-0.07l-1.571-1.625  C61.941,68.354,61.85,68.419,61.725,68.469z M58.212,71.006l-0.501,0.211c0.202,0.51,0.411,1.016,0.63,1.516l0.505-0.234  c-0.173-0.396-0.354-0.816-0.546-1.275L58.212,71.006z M57.52,71.365c-0.367,0.479-0.896,1.295-1.215,2.217  c0.422,0.982,0.952,2.053,1.615,3.195c-0.105-1.377-0.033-3.529,0.221-3.92C57.925,72.361,57.717,71.865,57.52,71.365z   M64.327,70.287l-0.539-0.062l-0.024,0.228c-0.06,0.493-0.115,0.95-0.173,1.378l0.548,0.089  C64.21,71.375,64.273,70.832,64.327,70.287z M58.298,73.217c-0.178,0.926-0.307,2.494-0.094,4.041  c0.137,0.227,0.278,0.454,0.426,0.686c-0.157-1.441-0.11-2.789,0.162-3.635C58.624,73.947,58.459,73.583,58.298,73.217z   M63.434,72.932c0.174,0.053,0.346,0.178,0.51,0.366c0.06-0.382,0.115-0.767,0.166-1.149l-0.551-0.088  C63.516,72.369,63.475,72.66,63.434,72.932z M67.611,87.256l-1.709-2.477c-0.075-0.11-0.327-0.023-0.426-0.01l-0.199,0.027  c-0.494,0.034-0.838-0.32-1.123-0.761c-0.068-0.097-0.111-0.211-0.23-0.3l-0.049-0.016l-1.887,0.266  c-0.066,0.011-0.074,0.012-0.162,0.029l-0.043,0.045c-0.031,0.049-0.102,0.289-0.113,0.324c-0.139,0.452-0.357,0.93-0.871,1.041  l-0.135,0.018c-0.127,0.02-0.43,0.004-0.471,0.136l-0.32,0.957c0.025-0.022,0.061-0.043,0.082-0.043h0.232l0.1-0.272  c0.037-0.115,0.148-0.222,0.271-0.238l5.104-0.715c0.123-0.02,0.26,0.051,0.326,0.151l1.668,2.312  C67.648,87.585,67.633,87.428,67.611,87.256z M50.394,37.078l-1.174-0.64v0.275l1.225,1.442l1.225-1.442v-0.275l-1.174,0.64  C50.478,37.087,50.409,37.087,50.394,37.078z M49.249,41.165h-0.184c-0.016,0-0.104-0.035-0.115-0.047l-0.086-0.083v6.467  l0.002,1.844h3.135v-1.844v-6.435l-0.054,0.052c-0.01,0.01-0.098,0.046-0.116,0.046h-0.185h-0.972v1.097  c0,0.1-0.051,0.168-0.114,0.203v0.226h0.795c0.156,0,0.156,0.233,0,0.233h-0.795v3.222c0,0.156-0.233,0.156-0.233,0v-3.222h-0.793  c-0.156,0-0.156-0.233,0-0.233h0.793v-0.226c-0.066-0.035-0.115-0.103-0.115-0.203v-1.097H49.249z M52.148,40.276l-0.568,0.557  h-0.902v-0.671c0-0.101-0.053-0.168-0.115-0.231c0-0.156-0.234-0.156-0.234,0.027c-0.066,0.036-0.115,0.103-0.115,0.204v0.671  h-0.895l-0.57-0.557v-4.01v-0.323l0.57-0.557h2.263l0.569,0.557v0.323h-0.002V40.276z M52.018,36.073  c0-0.159-0.158-0.18-0.242-0.134l-0.598,0.327l-0.734,0.4l-0.734-0.4l-0.598-0.327c-0.086-0.046-0.24-0.026-0.24,0.133v0.194v0.314  c0,0.082,0.051,0.151,0.094,0.195l1.371,1.617c0.01,0.011,0.074,0.041,0.125,0.041c0.016,0,0.079-0.03,0.089-0.041l1.367-1.609  c0.042-0.044,0.1-0.117,0.1-0.202v-0.314V36.073z M48.632,40.912l-0.425-0.383l-0.003,1.475c0.011,0.032,0.03,0.065,0.08,0.116  l0.348,0.312V40.912z M52.659,40.529l-0.425,0.383v1.52l0.348-0.312c0.057-0.057,0.072-0.092,0.08-0.108L52.659,40.529z   M52.406,47.501v1.536l0.256-0.249v-1.287v-5.007l-0.256,0.23V47.501z M51.96,35.112l0.656,0.643c0.01,0.01,0.034,0.064,0.045,0.097  l0.001-0.74H51.96z M48.204,47.501v1.287l0.256,0.249v-1.536v-4.777l-0.256-0.23V47.501z M52.85,34.567  c0.014-0.836,0.014-1.86-0.004-3.104c-0.084-5.027-0.279-5.57-0.279-5.57c-0.072-0.414-0.121-0.577-0.527-0.577H48.85  c-0.407,0-0.455,0.163-0.529,0.577c0,0-0.195,0.543-0.276,5.57c-0.021,1.244-0.02,2.268-0.005,3.104l0.041,0.001h0.451l0.396-7.732  c0.013-0.246,0.22-0.443,0.465-0.443h2.103c0.246,0,0.453,0.197,0.465,0.443l0.396,7.732h0.451L52.85,34.567z M53.914,30.946  c-0.174,2.483-0.305,3.021-0.331,3.105c-0.09,0.341-0.263,0.645-0.59,0.729v0.238c0.004,0.02,0.006,0.04,0.006,0.061v0.322  c0.067-0.162,0.229-0.275,0.416-0.275l3.229,0.009c0.133-0.536,0.197-0.785,0.822-0.813c0.053-0.002,0.09-0.001,0.104,0h0.656  l-0.199-1.381c-0.021-0.154,0.211-0.188,0.23-0.033l0.202,1.418l0.356-0.001l-0.398-2.809  C58.214,31.427,57.301,31.136,53.914,30.946z M51.495,26.627h-2.103c-0.12,0-0.224,0.1-0.231,0.22l-0.166,3.241h2.897l-0.166-3.241  C51.721,26.727,51.616,26.627,51.495,26.627z M52.583,22.176h-4.265c-0.109,0-0.202,0.08-0.222,0.177l0.668,1.824  c0.034,0.08,0.078,0.189,0.123,0.241c0.022,0.025,0.045,0.04,0.107,0.04h0.047H51.9c0.09-0.002,0.113-0.051,0.149-0.123  c0.021-0.039,0.04-0.082,0.062-0.133l0.678-1.847C52.773,22.255,52.688,22.178,52.583,22.176z M48.796,33.983h3.296l-0.183-3.562  h-2.931L48.796,33.983z M48.204,35.112v0.671l0.742-0.679L48.204,35.112z M61.741,63.109l-0.158,0.021l0.608,4.32  c0.022,0.173,0.054,0.3,0.013,0.472c-0.015,0.057-0.033,0.104-0.056,0.153l1.468,1.524c0.217-2.246,0.204-4.086,0.11-5.531  c-0.029-0.449-0.34-4.084-0.804-4.619l-0.235-0.021C62.741,61.368,62.167,63.05,61.741,63.109z M54.688,47.393v-0.851  c-0.025,0.004-0.041,0.004-0.041,0.004h-1.23c-0.079,0-0.152-0.021-0.219-0.055v0.694c0,0.119,0.098,0.214,0.219,0.214h1.23  C54.646,47.399,54.661,47.398,54.688,47.393z M61.964,47.501c0.456,3.165,0.604,6.55,0.228,9.505  c-0.232-0.617-0.521-1.234-0.769-1.699c-0.231-0.402-0.42-0.687-0.866-0.625l-3.412,0.48c-0.449,0.062-0.552,0.389-0.664,0.838  c0,0-0.109,0.525-0.195,1.207c-0.031,0.229-0.059,0.48-0.078,0.734c-1.436-3.051-2.145-6.752-2.542-10.082h0.981  c0,0,0.221,0.007,0.91-0.349l0.062-0.032l0.018,0.021l0.209,0.252c0.244,0.244,0.359,0.308,0.588,0.308h2.016  c0.229,0,0.344-0.063,0.588-0.308l0.432-0.521c0.16-0.195,0.189-0.218,0.189-0.468v-1.324l1.076-0.543  c0.17,0.839,0.453,2.655,0.455,2.682c0.033,0.218,0.361,0.172,0.328-0.047c0-0.01-0.295-1.902-0.477-2.79l0.398-0.201  C61.643,45.489,61.82,46.483,61.964,47.501z M56.33,56.221c-0.311-0.881-0.602-1.838-0.862-2.857  c-0.054-0.215-0.375-0.133-0.319,0.082c0.265,1.031,0.558,1.998,0.871,2.886C56.091,56.538,56.402,56.428,56.33,56.221z   M61.951,43.071c-1.223,0.595-5.829,2.835-6.393,3.125c-0.287,0.148-0.492,0.233-0.636,0.282v0.84  c0.122-0.047,0.294-0.123,0.526-0.243c0.621-0.321,5.613-2.835,6.057-3.059l0.475-0.814L61.951,43.071z M56.018,47.592  c0.224,0.224,0.278,0.235,0.418,0.235h2.015c0.139,0,0.192-0.011,0.413-0.231l0.078-0.094l0.347-0.417  c0.129-0.159,0.14-0.133,0.14-0.32v-1.206c-1.342,0.675-2.912,1.468-3.593,1.814l0.106,0.129L56.018,47.592z M60.303,35.327  l0.206,0.939l1.435,6.548c-1.051,0.512-5.914,2.875-6.493,3.174c-0.614,0.316-0.804,0.323-0.804,0.323h-1.231  c-0.121,0-0.218-0.096-0.218-0.215v-9.83v-0.691c0-0.119,0.097-0.215,0.218-0.215l3.319,0.01c0.295,0.001-0.077-0.863,0.832-0.814  h2.059C60.148,34.556,60.299,35.294,60.303,35.327z M59.875,41.552h-0.002v-4.545c0-0.248-0.203-0.449-0.449-0.449h-0.945  c-0.045-0.053-0.11-0.088-0.187-0.088h-0.321c-0.074,0-0.144,0.035-0.188,0.088h-1.49c-0.045-0.053-0.111-0.088-0.188-0.088h-0.319  c-0.075,0-0.146,0.035-0.188,0.088h-0.584h-0.762c-0.248,0-0.447,0.201-0.447,0.449v4.545h-0.002c0,0.25,0.029,0.271,0.188,0.468  l0.434,0.521c0.244,0.245,0.359,0.308,0.588,0.308h3.145c0.215,0,0.35-0.054,0.582-0.213l0.791-0.53  C59.803,41.938,59.875,41.78,59.875,41.552z M62.572,58.266c0.014,0.071,0.025,0.145,0.035,0.211  c0.015,0.086,0.023,0.174,0.035,0.26c0.002,0.033,0.006,0.068,0.01,0.104l0.609,0.005c0.074,0,0.143,0.057,0.146,0.127l0.119,1.616  c0.111,0.565,0.203,1.229,0.287,1.791l0.074,0.035l-0.346-4.146L62.572,58.266z M62.402,58.736c0.26,2.289-0.473,4.111-0.695,4.142  l-3.412,0.479c-0.229,0.033-1.51-1.623-1.85-4.018c-0.021-0.182-0.035-0.386-0.037-0.604c-0.012-0.866,0.146-1.942,0.301-2.684  c0.115-0.466,0.191-0.621,0.469-0.66l3.41-0.479c0.278-0.038,0.395,0.09,0.633,0.507c0,0,0.244,0.463,0.514,1.084  c0.271,0.624,0.559,1.395,0.643,2.006C62.389,58.585,62.396,58.66,62.402,58.736z M57.746,56.089  c0.006-0.351-0.129-0.269-0.129-0.269l-0.508-0.027l-0.045,0.168c0,0-0.184,0.873-0.266,1.83l0.941-0.945  C57.741,56.846,57.738,56.439,57.746,56.089z M61.684,57.104c-0.342-0.896-0.76-1.687-0.76-1.687l-0.09-0.147l-0.479,0.166  c0,0-0.153-0.041-0.053,0.295c0.105,0.336,0.213,0.725,0.213,0.725L61.684,57.104z M56.105,37.756v-1.051L55.77,36.72l0.017,1.036  H56.105z M62.354,42.513v-1.409c-0.056-0.032-0.267-0.116-0.289-0.229l-0.854-4.608l-0.189-1.023  c-0.006-0.052-0.125-0.726-0.596-0.726H60.13c0.218,0.19,0.353,0.489,0.404,0.762l0.215,0.987l1.408,6.429L62.354,42.513z   M59.425,36.793h-0.454c0.17,0.064,0.286,0.228,0.286,0.419v3.491c0,0.228-0.069,0.386-0.344,0.554l-0.791,0.53  C57.891,41.944,57.757,42,57.54,42H57.4h-2.491c-0.248,0-0.449-0.201-0.449-0.448v-4.34c0-0.191,0.121-0.354,0.289-0.419h-0.498  c-0.119,0-0.215,0.096-0.215,0.214v4.545c0,0.187,0.009,0.161,0.137,0.32l0.429,0.515c0.217,0.217,0.272,0.228,0.41,0.228h3.146  c0.149,0,0.237-0.029,0.45-0.173l0.795-0.533c0.211-0.13,0.238-0.219,0.238-0.357v-4.545C59.641,36.888,59.544,36.793,59.425,36.793  z M54.693,41.552c0,0.118,0.097,0.215,0.216,0.215h2.489l0.142-0.001c0.151,0,0.239-0.029,0.451-0.173l0.796-0.532  c0.21-0.13,0.236-0.219,0.236-0.357v-3.491c0-0.118-0.096-0.214-0.215-0.214h-0.267v0.744c0,0.138-0.112,0.25-0.251,0.25h-0.32  c-0.146,0-0.226-0.115-0.244-0.219l-0.004-0.045V37h-1.367v0.744c0,0.138-0.112,0.25-0.25,0.25h-0.32  c-0.146,0-0.225-0.115-0.247-0.219l-0.002-0.045v-0.729h-0.627c-0.119,0-0.216,0.096-0.216,0.214V41.552z M58.293,37.756v-1.051  l-0.335,0.015l0.015,1.036H58.293z M63.119,37.733l-0.281-1.465l-0.404-2.129c-0.037-0.18-0.135-0.379-0.322-0.435  c0,0-0.502-0.265-1.07-0.561c-0.068-0.037-0.143-0.055-0.207-0.052c-0.021,0.021-0.045,0.039-0.078,0.049  c-0.047,0.014-0.09,0.033-0.131,0.056c-0.016,0.015-0.021,0.033-0.033,0.052L60.1,34.091v0.097h0.33  c0.549-0.002,0.848,0.53,0.922,0.999l0.198,1.08l0.599,3.222c0.297-0.353,0.896-1.068,1.004-1.219  C63.236,38.152,63.166,37.86,63.119,37.733z M67.632,88.745l0.728,1.702c-0.002-0.59,0.004-1.401,0.01-1.702H67.632z M50.794,9.601  l1.274,0.494V9.708l-1.274-0.501V9.601z M50.794,8.902v0.054l1.38,0.542l1.049-0.661V8.611l-1.131-0.063L50.794,8.902z   M49.77,11.842h1.349l-0.174-0.13l-0.5-0.375L49.77,11.842z M52.305,10.054l0.918-0.579V9.113l-0.918,0.58V10.054z M50.559,10.869  v0.261l0.526,0.394l0.45,0.338c0.033,0.026,0.052,0.061,0.052,0.093v1l0.884-0.29v-2.057c0-0.006,0.018-0.062,0.022-0.068l0.43-0.6  l-0.674,0.425c-0.017,0.01-0.088,0.017-0.104,0.01l-1.51-0.585c-0.029-0.01-0.066-0.064-0.074-0.1v0.453l0.33,0.248v0.293  l-0.332-0.249v0.142l0.332,0.249v0.293L50.559,10.869z M49.766,13.852h1.357v-1.775h-1.357V13.852z M53.457,8.5v1.04  c0,0.012-0.012,0.039-0.025,0.061c0,0.021-0.009,0.043-0.022,0.065l-0.703,0.98v2.216l0.271,0.571h0.894l-0.572-0.4v-2.625  l0.593-1.011v-0.99l-0.382-0.079L53.457,8.5z M53.531,12.912l0.705,0.492v-0.486V8.479l-0.113-0.022v1.005l-0.592,1.01V12.912z   M47.667,8.611v0.225l1.047,0.661l1.379-0.542V8.901l-1.297-0.354L47.667,8.611z M52.05,8.317l1.198,0.062l0.115-0.387l-1.342-0.426  L51.012,8.6L52.05,8.317z M49.492,6.399l0.958,0.584l0.971-0.597V4.568h-1.929V6.399z M49.492,4.334h1.929v-1.3h-1.929V4.334z   M50.561,7.191v1.534h0.002L51.9,7.354V6.775l-0.243-0.259L50.561,7.191z M52.811,13.619l-0.24-0.498l-0.982,0.322v0.874h-2.286  v-0.874l-0.981-0.322L48.094,13.6l-0.352,1.479h5.406L52.811,13.619z M50.329,10.143L50.325,9.69  c-0.006,0.035-0.043,0.089-0.072,0.1l-1.508,0.585c-0.018,0.007-0.09,0-0.105-0.01l-0.668-0.421l0.424,0.597  c0.003,0.005,0.021,0.061,0.021,0.067v2.057l0.885,0.29v-1c0.01-0.035,0.022-0.07,0.06-0.098l0.971-0.727v-0.261l-0.334,0.25v-0.293  l0.334-0.249v-0.142l-0.334,0.249v-0.293L50.329,10.143z M47.667,9.475l0.918,0.579V9.692l-0.918-0.579V9.475z M48.82,9.708v0.388  l1.272-0.494V9.207L48.82,9.708z M47.019,13.433h0.895l0.27-0.571v-2.216l-0.712-1.004c-0.015-0.02-0.021-0.041-0.024-0.06  c-0.008-0.017-0.015-0.034-0.015-0.043V8.515l-0.054-0.186l-0.377,0.078v0.99l0.592,1.011v2.625L47.019,13.433z M42.331,0.591  c-0.027,0.029-0.079,0.157,0.158,0.394c0.23,0.231,5.629,4.932,6.373,5.58l0.112-0.12V5.557c-0.528-0.416-5.577-4.39-6.085-4.793  C42.794,0.69,42.484,0.447,42.331,0.591z M51.914,6.45l0.109,0.116c0.742-0.645,6.146-5.349,6.377-5.581  c0.236-0.237,0.184-0.365,0.156-0.394C58.404,0.447,58.094,0.69,58,0.764c-0.508,0.403-5.557,4.377-6.086,4.793V6.45z M48.108,4.579  l0.72,0.567V4.165L48.108,4.579z M74.716,47.501c-0.26-1.093-0.588-2.115-0.682-2.2c0.055-0.399-0.009-0.784-0.308-0.988  c0.147-0.143,0.267-0.334,0.351-0.6c0.553-0.186,0.891-0.759,0.766-1.342l-1.297-6.104l-0.674-3.168l-0.944-1.829  c0.815-0.68,0.186-2.125,0.03-2.854c-0.019-0.082-0.06-0.166-0.115-0.231c-0.086-0.093-0.196-0.15-0.325-0.162L71.171,28  l0.103-2.308l-0.14-0.662l-0.756-3.552l0.631-1.875l-0.229-0.596l1.789-3.604c0.136-0.35,0.017-0.759-0.205-0.995  c-0.579-0.728-0.94-1.291-2.024-1.291h-5.993c-1.39,0-2.537,0.758-2.816,1.927c-0.353-0.131-0.75-0.067-1.125-0.091  c0.224-0.083,0.406-0.267,0.482-0.511l0.04-0.156c0.072-0.31-0.045-0.615-0.28-0.799l0.11-0.42l0.263-0.001l0.03-0.998  c0.123-0.36,0.744-2.202,1.3-4.032c0.629-2.06,1.108-5.145,1.108-5.145l-0.103-0.026l0.062-0.225l0.313,0.005l-0.03-0.94  l-0.011-0.394c-0.006-0.269-0.168-0.437-0.314-0.528c-0.443-0.272-1.602-0.61-1.918-0.056l-0.189,0.321l-0.504,0.804l0.275,0.153  l-0.062,0.224l-0.102-0.028c-1.166,3.015-1.873,5.997-2.504,9.151l-0.471,0.88l0.221,0.129l-0.127,0.48  c-0.246,0.079-0.43,0.275-0.51,0.523L57.45,13.5c-0.056,0.203-0.024,0.409,0.069,0.581l-0.018,0.053  c-0.086,0.015-0.17,0.044-0.247,0.087V14.16l-0.67-0.669H55.73l-0.03-0.04c0.553-0.751,0.877-1.868,0.877-3.071  c0-1.128-0.271-2.181-0.781-2.932V7.033c0-0.462-0.963-0.813-1.108-0.898v-0.41c0-0.175-0.121-0.331-0.268-0.412  c1.837-1.602,4.229-3.69,4.378-3.843c0.214-0.212,0.365-0.479,0.345-0.771c0.071-0.905-0.941-0.818-1.494-0.378  c-0.356,0.283-2.979,2.348-4.688,3.694l-0.545-0.312V2.039h-3.918v1.664l-0.557,0.32c-1.711-1.346-4.343-3.418-4.701-3.702  c-0.553-0.439-1.565-0.527-1.496,0.378c-0.021,0.292,0.131,0.559,0.344,0.771c0.153,0.152,2.542,2.241,4.379,3.843  C46.319,5.394,46.2,5.549,46.2,5.725v0.411c-0.145,0.083-1.109,0.436-1.109,0.896l-0.004,0.42c-0.506,0.748-0.779,1.801-0.779,2.929  c0,1.203,0.326,2.319,0.879,3.071l-0.03,0.04h-0.718v0.332h0.877l0.298-0.373c-0.594-0.665-0.974-1.798-0.974-3.07  c0-1.126,0.283-2.144,0.778-2.823l0.003-0.524c0-0.025,0.039-0.09,0.059-0.102l1.053-0.604V5.725c0-0.025,0.039-0.09,0.061-0.102  l0.447-0.249c-1.861-1.623-4.557-3.976-4.718-4.138c-0.187-0.187-0.268-0.371-0.245-0.534c-0.04-0.369,0.377-0.58,0.955-0.12  c0.372,0.293,3.179,2.503,4.877,3.841l0.919-0.527V2.371h3.255v1.524l0.904,0.52c1.701-1.339,4.498-3.541,4.867-3.833  c0.58-0.46,0.998-0.249,0.957,0.12c0.021,0.163-0.061,0.347-0.246,0.534c-0.162,0.163-2.855,2.516-4.719,4.138l0.447,0.249  c0.021,0.012,0.062,0.077,0.062,0.102v0.603l1.051,0.604c0.021,0.012,0.059,0.077,0.059,0.102v0.52  c0.499,0.684,0.781,1.702,0.781,2.828c0,1.271-0.379,2.405-0.971,3.07l0.296,0.373h0.878l0.475,0.474v0.781l0.19,0.012l0.091-0.306  c0.066-0.248,0.312-0.376,0.553-0.316l0.12-0.452c-0.104-0.111-0.151-0.271-0.108-0.43l0.035-0.128  c0.053-0.164,0.17-0.275,0.324-0.311c0.038-0.011,0.08-0.016,0.129-0.013l0.25-0.932l-0.164-0.096l0.344-0.642  c0.039-0.205,0.441-2.216,0.896-4.18c0.482-2.078,1.492-4.687,1.492-4.687l0.135,0.036l0.213-0.794l-0.199-0.11l0.32-0.507  l0.195-0.327c0.1-0.176,0.277-0.163,0.449-0.131c0.242,0.045,0.48,0.115,0.717,0.185c0.186,0.056,0.447,0.126,0.453,0.367  l0.004,0.394l0.021,0.598l-0.225-0.004L62.947,3.1l0.136,0.036c0,0-0.431,2.764-1.051,4.804c-0.589,1.928-1.246,3.871-1.312,4.068  l-0.025,0.728h-0.193l-0.248,0.923c0.264,0.07,0.406,0.31,0.35,0.546l-0.039,0.146c-0.059,0.197-0.242,0.324-0.439,0.319  l-0.109,0.414c0.082,0.044,0.146,0.111,0.188,0.19l1.184,0.071c0.016,0.001,0.098,0.039,0.107,0.048l0.303,0.303v-0.091  c0-1.248,1.08-2.156,2.551-2.156h5.994c0.953,0,1.252,0.521,1.775,1.176c0.154,0.16,0.234,0.43,0.15,0.644l-1.781,3.583  c-0.029,0.057-0.057,0.101-0.084,0.134l0.26,0.624l-0.621,1.847l0.758,3.572l0.146,0.69l-0.115,2.59l0.666,0.043  c0.023,0.002,0.045,0.008,0.064,0.02c0.014,0.007,0.023,0.016,0.041,0.033c0.018,0.02,0.027,0.046,0.037,0.079l0.363,1.712  c0.084,0.401-0.139,0.804-0.51,0.951l1.066,2.063l0.648,3.055l1.312,6.173c0.096,0.448-0.189,0.889-0.641,0.984L73.8,43.44  c-0.021,0.165-0.086,0.322-0.176,0.458c-0.09,0.134-0.209,0.252-0.345,0.336c-0.166,0.103-0.286,0.12-0.473,0.159l-0.195,0.042  l0.685,0.068c0.461,0.061,0.455,0.46,0.404,0.797l-0.027,0.173c0.08,0.025,0.162,0.067,0.188,0.153  c0.195,0.617,0.363,1.243,0.505,1.875c0.102,0.458,0.188,0.919,0.26,1.383c0.049,0.308,0.09,0.612,0.119,0.921  c0.008,0.062-0.017,0.11-0.05,0.142c-0.036,0.031-0.088,0.045-0.143,0.04l-0.49-0.06l-2.151,1.738l-1.108-0.162l-1.521-0.55  c-0.087-0.092-0.777-0.805-0.808-0.949c-0.017-0.069-0.437-1.361-0.437-1.361c-0.045-0.114,0.028-0.235,0.116-0.302  c0.168-0.124,0.337-0.164,0.498-0.147l0.429-0.693l0.271-0.443c0.021-0.032,0.033-0.058,0.063-0.077  c0.039-0.017,0.047-0.018,0.099-0.025l0.262-0.029l0.203-0.954c0.138-0.669,0.146-0.874,0.599-0.836l0.149,0.017l0.035-0.327  L70.4,44.903c-0.205,0.044-0.354,0.069-0.567,0.017c-0.123-0.031-0.242-0.083-0.351-0.154c-0.086-0.056-0.166-0.123-0.233-0.201  c-0.037-0.043-0.071-0.089-0.103-0.138l-0.101,0.021c-0.446,0.095-0.889-0.191-0.981-0.639l-1.604-7.545l-0.356-1.684l0.135-2.326  c-0.387,0.001-0.729-0.267-0.815-0.668l-0.362-1.706c-0.017-0.077,0.017-0.133,0.099-0.188l0.674-0.355l-1.041-2.014l-0.485-2.295  l-0.322-1.513c-0.188,0.071-0.313,0.111-0.489,0.175c-0.589,0.189-1.479,0.221-1.479-0.608l-0.002-0.395l-0.147,0.217l-0.229,2.124  l-0.115,1.077c-0.053,0.383-0.221,0.891-0.531,1.131c-0.307,0.235-0.729,0.414-0.914,0.486l-0.457,2.195  c0,0-0.037,0.186-0.098,0.416c-0.062,0.223-0.148,0.509-0.264,0.697c-0.111,0.178-0.301,0.367-0.5,0.476l0.385,2.677h0.369  l0.729-1.092c0,0,0.012-0.018,0.033-0.041c0.104-0.11,0.242-0.188,0.385-0.232c0.07-0.021,0.127-0.002,0.162,0.035  c0.111-0.005,0.225,0.021,0.332,0.078c0.521,0.271,0.979,0.511,1.053,0.551c0.26,0.082,0.414,0.355,0.463,0.608l0.416,2.174  l0.27,1.404c0.072,0.21,0.135,0.54-0.006,0.735c-0.127,0.179-0.943,1.146-1.141,1.381l0.178,0.952  c0.068,0.038,0.311,0.127,0.311,0.269v1.58c0,0.149-0.411,0.451-0.42,0.458l-0.014,0.092c0,0.01-0.008,0.075-0.014,0.083  l0.014,0.144c0,0.01-0.008,0.075-0.014,0.083l-0.508,0.873c0.221,1.015,0.412,2.085,0.568,3.182v0.001  c0.473,3.34,0.609,6.935,0.16,9.992l-0.043,0.176c0.037,0.122,0.072,0.244,0.104,0.36l1.023,0.005  c0.312,0.002,0.275,0.368,0.291,0.565l0.01,0.135l0.281,3.802c0.82,0.467,1.283,1.188,1.449,2.112c0.4,0.16,0.674,0.41,0.812,0.845  c0.01,0.032,0.472,1.623,0.358,4.476c-0.073,1.939-0.414,4.459-1.338,7.471c0.011,0.026,0.015,0.058,0.019,0.088l0.596,3.681  l0.304,1.858l0.11,0.07c0.084,0.051,0.158,0.104,0.229,0.161c0.729,0.599,0.982,2.606,1.107,3.328  c0.104,0.608,0.133,1.201,0.114,1.747c-0.004,0.141-0.133,0.178-0.213,0.062l-0.472-0.68l0.32,0.754h0.956  c0.062,0,0.117,0.055,0.117,0.115l-0.002,0.122l1.44,0.226c0.156,0.008,0.283,0.139,0.283,0.297v3.17v0.106  c0,0.156-0.123,0.287-0.277,0.297l-0.606,0.132l0.238,0.557l0.012,0.047v0.736c0,0.062-0.057,0.117-0.118,0.117h-0.688  c-0.022,0-0.089-0.037-0.101-0.056l-0.582-0.933v0.744l0.239,0.371l0.013,0.041c1.323,0.063,1.224,1.5,1.414,2.459l0.041,0.01  c0.09-0.094,0.289-0.055,0.289,0.115v0.401c0.069,0.065,0.187,0.187,0.187,0.251v0.118c0.028,0.041,0.051,0.081,0.051,0.114v1.361  c0,0.088-0.08,0.163-0.168,0.163h-6.996h-6.991c-0.091,0-0.166-0.075-0.166-0.163V98.07c0-0.033,0.021-0.073,0.048-0.114v-0.118  c0-0.064,0.118-0.186,0.188-0.251v-0.332c0-0.114,0.092-0.172,0.178-0.166c0.045-0.006,0.097-0.013,0.125-0.03  c0.203-0.961,0.099-2.406,1.439-2.459l0.254-0.404v-0.75l-0.582,0.933c-0.013,0.019-0.076,0.056-0.101,0.056h-0.69  c-0.062,0-0.115-0.056-0.115-0.117V93.58l0.01-0.046l0.236-0.558L56.5,92.846c-0.152-0.011-0.277-0.144-0.277-0.298v-0.106v-3.168  c0-0.156,0.129-0.289,0.285-0.297l1.439-0.227l-0.002-0.122c0-0.062,0.055-0.114,0.117-0.114h0.934  c-0.039-0.207-0.07-0.422-0.094-0.639c-0.172-1.57-0.193-2.396-0.094-2.902c0.064-0.35,0.188-0.564,0.416-0.818l0.131-0.145  l-0.332-2.803l-0.324-2.729c-2.305-3.52-3.371-6.492-3.865-8.506c-0.428-1.744-0.423-2.769-0.423-2.793  c0.012-0.455,0.204-0.77,0.548-1.033c-0.096-0.936,0.148-1.754,0.82-2.408c-0.092-0.287-0.684-3.225-0.776-3.705  c-0.128-0.639-0.211-0.711,0.083-0.805l1.098-0.334l-0.002-0.156v-0.039l-0.068-0.178c-1.549-3.151-2.36-7.178-2.779-10.667  c-0.154-0.029-0.281-0.138-0.336-0.283v1.287c0,0.018-0.037,0.106-0.05,0.119l-0.669,0.654c-0.014,0.012-0.102,0.047-0.115,0.047  h-3.452c-0.017,0-0.104-0.036-0.115-0.047l-0.669-0.654c-0.014-0.012-0.051-0.101-0.051-0.119V47.62  c-0.068,0.129-0.197,0.222-0.35,0.238c-0.418,3.488-1.231,7.511-2.778,10.662l-0.065,0.178v0.039l-0.004,0.156l1.096,0.334  c0.295,0.094,0.211,0.166,0.084,0.805c-0.094,0.48-0.686,3.419-0.775,3.705c0.67,0.654,0.915,1.476,0.819,2.408  c0.345,0.267,0.538,0.578,0.548,1.033c0,0.025,0.004,1.047-0.424,2.793c-0.491,2.014-1.558,4.987-3.864,8.506l-0.324,2.729  l-0.333,2.802l0.132,0.145c0.227,0.254,0.349,0.472,0.418,0.818c0.098,0.508,0.075,1.332-0.094,2.903  c-0.024,0.217-0.058,0.431-0.097,0.638h0.935c0.063,0,0.117,0.053,0.117,0.115l-0.001,0.122l1.44,0.226  c0.157,0.008,0.283,0.141,0.283,0.297v3.168v0.108c0,0.154-0.124,0.287-0.278,0.298l-0.605,0.129l0.239,0.56L44,93.579v0.737  c0,0.062-0.055,0.117-0.117,0.117h-0.69c-0.021,0-0.088-0.037-0.099-0.057l-0.584-0.934v0.75l0.256,0.404  c1.342,0.053,1.236,1.5,1.439,2.461c0.027,0.019,0.078,0.023,0.127,0.029c0.086-0.006,0.176,0.051,0.176,0.166v0.332  c0.069,0.064,0.186,0.186,0.186,0.251v0.118c0.029,0.041,0.049,0.081,0.049,0.115v1.361c0,0.088-0.078,0.164-0.166,0.164h-6.993  h-6.995c-0.088,0-0.166-0.076-0.166-0.164V98.07c0-0.034,0.019-0.074,0.049-0.115v-0.118c0-0.065,0.117-0.187,0.185-0.251v-0.402  c0-0.17,0.198-0.207,0.289-0.113l0.042-0.01c0.191-0.959,0.088-2.396,1.412-2.461l0.014-0.041l0.24-0.371v-0.744l-0.582,0.934  c-0.012,0.02-0.077,0.057-0.1,0.057h-0.691c-0.061,0-0.115-0.057-0.115-0.117v-0.737l0.01-0.046l0.237-0.559l-0.605-0.129  c-0.156-0.012-0.278-0.143-0.278-0.299v-0.107v-3.168c0-0.16,0.126-0.289,0.283-0.297l1.441-0.227l-0.002-0.122  c0-0.062,0.055-0.114,0.116-0.114h0.957l0.321-0.755l-0.473,0.679c-0.078,0.114-0.208,0.078-0.212-0.062  c-0.018-0.546,0.01-1.139,0.116-1.747c0.123-0.722,0.379-2.729,1.107-3.328c0.07-0.06,0.147-0.11,0.229-0.161l0.112-0.07  l0.302-1.858l0.596-3.679c0.006-0.032,0.012-0.062,0.02-0.09c-0.925-3.008-1.264-5.527-1.339-7.469  c-0.11-2.853,0.353-4.443,0.362-4.478c0.135-0.435,0.407-0.685,0.81-0.845c0.167-0.926,0.63-1.646,1.45-2.112l0.281-3.802  l0.01-0.137c0.016-0.197-0.022-0.562,0.289-0.563l1.029-0.005c0.028-0.116,0.061-0.238,0.1-0.36l-0.042-0.176  c-0.45-3.058-0.312-6.652,0.16-9.993c0.159-1.112,0.354-2.197,0.577-3.225l-0.48-0.828c-0.005-0.009-0.016-0.073-0.013-0.083  l0.026-0.121c-0.019-0.032-0.029-0.097-0.026-0.106l0.015-0.07c-0.037-0.029-0.449-0.331-0.449-0.48v-1.58  c0-0.142,0.24-0.23,0.311-0.269l0.176-0.952c-0.195-0.234-1.013-1.202-1.141-1.381c-0.139-0.195-0.076-0.524-0.002-0.735  l0.268-1.404l0.416-2.174c0.049-0.252,0.201-0.526,0.461-0.608c0.075-0.04,0.531-0.28,1.054-0.551  c0.108-0.057,0.224-0.083,0.331-0.078c0.037-0.037,0.094-0.056,0.162-0.035c0.141,0.043,0.33,0.146,0.42,0.273l0.728,1.092h0.37  l0.383-2.675c-0.213-0.119-0.439-0.38-0.485-0.452c-0.176-0.277-0.308-0.801-0.372-1.132l-0.451-2.199  c-0.062-0.024-0.151-0.06-0.256-0.107c-0.193-0.087-0.442-0.214-0.646-0.367c-0.321-0.25-0.493-0.76-0.552-1.139l-0.117-1.084  l-0.229-2.121c-0.047-0.062-0.104-0.122-0.15-0.185v0.359c0,0.83-0.894,0.797-1.479,0.608c-0.176-0.064-0.304-0.104-0.493-0.175  l-0.32,1.513l-0.488,2.295l-1.041,2.014l0.676,0.355c0.082,0.054,0.112,0.11,0.098,0.188l-0.363,1.706  c-0.086,0.401-0.43,0.669-0.818,0.668l0.137,2.326l-0.357,1.684l-1.605,7.545c-0.096,0.448-0.535,0.734-0.984,0.639l-0.098-0.021  c-0.029,0.049-0.064,0.095-0.102,0.138c-0.066,0.078-0.147,0.145-0.233,0.201c-0.108,0.07-0.228,0.123-0.353,0.154  c-0.212,0.052-0.361,0.027-0.566-0.017l-0.359-0.076l0.034,0.327l0.147-0.017c0.455-0.038,0.463,0.167,0.598,0.836l0.203,0.954  l0.262,0.029c0.054,0.007,0.061,0.008,0.098,0.025c0.033,0.019,0.045,0.044,0.066,0.077l0.272,0.443l0.427,0.693  c0.162-0.016,0.329,0.024,0.498,0.147c0.088,0.066,0.16,0.188,0.116,0.302c0,0-0.419,1.292-0.435,1.361  c-0.03,0.145-0.722,0.858-0.806,0.949l-1.522,0.55l-1.108,0.162l-2.151-1.738l-0.49,0.06c-0.056,0.005-0.105-0.009-0.142-0.04  c-0.034-0.031-0.058-0.079-0.05-0.142c0.031-0.309,0.07-0.614,0.118-0.921c0.071-0.463,0.157-0.925,0.261-1.383  c0.141-0.632,0.309-1.258,0.504-1.875c0.027-0.085,0.108-0.127,0.189-0.153l-0.027-0.173c-0.05-0.337-0.058-0.736,0.402-0.797  l0.686-0.068l-0.195-0.042c-0.186-0.04-0.309-0.057-0.473-0.159c-0.137-0.084-0.254-0.202-0.344-0.336  c-0.091-0.135-0.154-0.292-0.176-0.458l-0.08-0.017c-0.448-0.095-0.734-0.536-0.64-0.984l1.313-6.173l0.649-3.055l1.067-2.063  c-0.375-0.146-0.594-0.549-0.509-0.951l0.364-1.712c0.006-0.033,0.021-0.059,0.036-0.079c0.017-0.018,0.028-0.026,0.042-0.033  c0.018-0.011,0.04-0.018,0.064-0.02l0.667-0.043l-0.116-2.59l0.145-0.69l0.762-3.572l-0.622-1.847l0.259-0.622  c-0.027-0.034-0.056-0.079-0.086-0.136l-1.771-3.566c-0.009-0.017-0.018-0.043-0.027-0.086c-0.041-0.206,0.021-0.421,0.17-0.575  c0.524-0.655,0.822-1.176,1.775-1.176h5.995c1.47,0,2.548,0.908,2.548,2.156v0.091l0.303-0.303c0.01-0.009,0.086-0.042,0.105-0.047  l1.19-0.072c0.042-0.079,0.105-0.146,0.187-0.19l-0.111-0.414c-0.197,0.005-0.381-0.122-0.441-0.319l-0.039-0.146  c-0.057-0.236,0.086-0.476,0.35-0.546l-0.247-0.923h-0.194l-0.023-0.728c-0.067-0.197-0.727-2.14-1.312-4.068  c-0.623-2.04-1.052-4.804-1.052-4.804L37.942,3.1l-0.213-0.794L37.505,2.31l0.021-0.598l0.006-0.394  c0.006-0.241,0.267-0.311,0.452-0.367c0.233-0.07,0.477-0.14,0.716-0.185c0.172-0.032,0.351-0.045,0.45,0.131l0.195,0.327  l0.319,0.507l-0.199,0.11l0.213,0.794l0.135-0.036c0,0,1.01,2.609,1.492,4.687c0.455,1.964,0.857,3.975,0.896,4.18l0.344,0.642  l-0.164,0.096l0.249,0.932c0.05-0.002,0.092,0.002,0.13,0.013c0.156,0.036,0.273,0.147,0.325,0.311l0.035,0.128  c0.042,0.159-0.005,0.319-0.109,0.43l0.12,0.452c0.241-0.06,0.488,0.068,0.553,0.316l0.092,0.306l0.189-0.012v-0.781l0.143-0.142  c0.332-0.333,0.33-0.332,0.33-0.332s-0.039-0.433-0.276-0.192l-0.288,0.29l-0.24,0.239v0.061c-0.076-0.042-0.16-0.072-0.247-0.087  l-0.014-0.053c0.093-0.172,0.123-0.378,0.067-0.581l-0.036-0.135c-0.079-0.249-0.261-0.445-0.508-0.523l-0.128-0.48l0.222-0.129  l-0.472-0.88c-0.074-0.373-0.458-2.279-0.891-4.142c-0.486-2.097-1.611-5.009-1.611-5.009l-0.104,0.028l-0.059-0.224l0.276-0.153  L39.63,1.054l-0.19-0.32c-0.103-0.181-0.26-0.276-0.428-0.307c-0.46-0.086-1.797,0.234-1.813,0.883L37.193,1.7l-0.032,0.947  l0.314-0.005l0.061,0.225l-0.102,0.026c0.498,3.193,1.377,6.131,2.407,9.176l0.034,0.998l0.26,0.001l0.113,0.421  c-0.236,0.185-0.356,0.488-0.283,0.798l0.042,0.156c0.075,0.244,0.259,0.43,0.48,0.512l-1.034,0.062  c-0.031,0.008-0.062,0.017-0.092,0.028c-0.279-1.169-1.428-1.928-2.815-1.928h-5.995c-1.083,0-1.446,0.563-2.026,1.291  c-0.249,0.266-0.339,0.681-0.194,1.018l1.787,3.594l-0.241,0.578l0.634,1.88l-0.756,3.552l-0.141,0.662L29.718,28l-0.348,0.022  c-0.127,0.012-0.238,0.069-0.324,0.162c-0.057,0.065-0.098,0.149-0.115,0.231c-0.156,0.729-0.785,2.174,0.031,2.854l-0.945,1.829  l-0.673,3.168l-1.3,6.104c-0.123,0.583,0.215,1.157,0.766,1.342c0.086,0.266,0.203,0.457,0.351,0.6  c-0.298,0.204-0.36,0.589-0.306,0.988c-0.219,0.2-0.482,1.273-0.672,2.198h-0.001c-0.124,0.603-0.218,1.141-0.247,1.333  c-0.066,0.426-0.391,1.567,0.437,1.483l0.354-0.042l2.155,1.742l1.286-0.187l1.627-0.591c0.184-0.194,0.885-0.883,0.944-1.167  c0.014-0.068,0.424-1.328,0.424-1.328c0.17-0.477-0.345-0.83-0.741-0.879l-0.224-0.365l-0.383-0.62  c-0.052-0.082-0.115-0.149-0.195-0.196c-0.073-0.031-0.136-0.047-0.234-0.061l-0.154-0.718c-0.044-0.216-0.075-0.456-0.159-0.656  c0.287-0.039,0.553-0.169,0.81-0.458c0.587,0.067,1.14-0.322,1.266-0.913l1.618-7.614l0.354-1.659l-0.121-2.073  c0.39-0.122,0.701-0.445,0.793-0.877c0.037-0.176,0.753-1.821,0.109-2.248l-0.4-0.206l0.911-1.761l0.511-2.408l0.229-1.073  l0.139,0.05c0.469,0.15,1.085,0.222,1.514-0.075l0.12,1.099l0.122,1.127c0.061,0.399,0.254,1.028,0.677,1.36  c0.233,0.173,0.511,0.315,0.712,0.405l0.104,0.045l0.414,2.023c0.136,0.682,0.273,1.229,0.826,1.674l-0.296,2.071l-0.554-0.831  c-0.178-0.25-0.64-0.529-0.957-0.379c-0.456,0.037-1.005,0.436-1.415,0.652c-0.404,0.146-0.598,0.552-0.654,0.851l-0.429,2.236  l-0.253,1.319c-0.069,0.214-0.184,0.679,0.056,1.012c0.112,0.159,0.762,0.933,1.057,1.282l-0.119,0.637l-0.064,0.039  c-0.07,0.044-0.279,0.189-0.279,0.451v1.58c0,0.261,0.246,0.475,0.43,0.628c0.002,0.028,0.006,0.056,0.01,0.079  c-0.07,0.324,0.404,0.93,0.468,1.039c-0.217,1.011-0.406,2.078-0.56,3.17v0.001c-0.471,3.355-0.606,6.973-0.152,10.055l0.023,0.103  l-0.012,0.043l-0.773,0.003c-0.561,0.003-0.59,0.479-0.619,0.871l-0.012,0.16l-0.268,3.604c-0.769,0.489-1.228,1.203-1.424,2.076  c-0.394,0.194-0.685,0.498-0.836,0.978c-0.02,0.065-0.484,1.693-0.379,4.576v0.002c0.073,1.957,0.41,4.487,1.327,7.502l-0.604,3.731  l-0.269,1.657c-1.22,0.775-1.612,3.923-1.599,5.312h-0.257c-0.187,0-0.349,0.117-0.415,0.283l-1.178,0.184  c-0.323,0.027-0.578,0.297-0.578,0.627v3.17v0.107c0,0.324,0.245,0.59,0.561,0.626l0.191,0.041l-0.092,0.216l-0.024,0.113v0.771  c0,0.246,0.203,0.447,0.458,0.447c-0.42,0.5-0.484,1.283-0.58,1.939c-0.203,0.033-0.386,0.186-0.386,0.48v0.269l-0.042,0.05  c-0.098,0.119-0.143,0.281-0.143,0.365c-0.025,0.055-0.049,0.127-0.049,0.203v1.361c0,0.271,0.227,0.498,0.498,0.498h6.995h6.993  c0.271,0,0.498-0.227,0.498-0.498v-1.361c0-0.076-0.023-0.18-0.049-0.231c0-0.085-0.047-0.218-0.143-0.337l-0.043-0.05v-0.196  c0-0.277-0.189-0.438-0.35-0.477c-0.11-0.676-0.162-1.502-0.596-2.02c0.24-0.005,0.438-0.203,0.438-0.447V93.54l-0.023-0.112  l-0.094-0.217l0.193-0.041c0.314-0.035,0.559-0.307,0.559-0.626v-0.108v-3.168c0-0.326-0.254-0.601-0.578-0.629l-1.177-0.183  c-0.065-0.166-0.228-0.284-0.416-0.284h-0.543c0.174-1.227,0.534-3.232-0.402-4.281l0.319-2.688l0.311-2.613  c2.324-3.566,3.395-6.584,3.883-8.621h0.002c0.416-1.728,0.415-2.748,0.414-2.803c-0.014-0.502-0.21-0.872-0.533-1.17  c0.052-0.885-0.189-1.695-0.799-2.361c0.172-0.742,0.649-3.111,0.734-3.541c0.043-0.215,0.122-0.453,0.122-0.674  c0-0.34-0.253-0.455-0.433-0.514l-0.548-0.174L45.05,58.65c1.375-2.807,2.172-6.278,2.641-9.438c0.104,0.1,0.639,0.795,1.017,0.795  h3.452c0.379,0,0.915-0.695,1.016-0.795c0.461,3.166,1.258,6.636,2.631,9.446l-0.254,0.076l-0.568,0.175  c-0.18,0.058-0.432,0.174-0.434,0.514c0,0.043,0.004,0.093,0.014,0.147c0.215,1.351,0.535,2.738,0.846,4.066  c-0.61,0.666-0.852,1.477-0.799,2.36c-0.324,0.298-0.521,0.668-0.533,1.17c-0.002,0.056-0.002,1.075,0.414,2.802v0.002  c0.488,2.035,1.559,5.053,3.885,8.619l0.294,2.614l0.308,2.724c-0.904,1.01-0.539,3.077-0.373,4.246h-0.543  c-0.188,0-0.351,0.118-0.416,0.284l-1.18,0.185c-0.322,0.026-0.576,0.303-0.576,0.627v3.17v0.106c0,0.32,0.242,0.591,0.561,0.626  l0.191,0.041l-0.095,0.217l-0.022,0.112v0.771c0,0.242,0.201,0.445,0.443,0.447c-0.322,0.383-0.445,0.932-0.521,1.467  c-0.039,0.266-0.068,0.526,0.055,0.526l0.046,0.004c-0.286-0.019-0.528,0.197-0.528,0.496v0.196l-0.041,0.05  c-0.1,0.119-0.145,0.28-0.145,0.364c-0.027,0.056-0.048,0.128-0.048,0.205v1.361c0,0.271,0.226,0.498,0.497,0.498h6.992h6.996  c0.271,0,0.498-0.228,0.498-0.498V98.07c0-0.077-0.021-0.18-0.051-0.232c0-0.085-0.045-0.218-0.143-0.337l-0.043-0.05v-0.268  c0-0.297-0.184-0.447-0.389-0.481c-0.094-0.656-0.158-1.44-0.568-1.94c0.244,0,0.447-0.201,0.447-0.447v-0.771l-0.021-0.112  l-0.092-0.217l0.189-0.041c0.316-0.035,0.562-0.302,0.562-0.626v-0.106v-3.168c0-0.33-0.258-0.602-0.58-0.629l-1.178-0.184  c-0.064-0.166-0.229-0.283-0.416-0.283H68.23c0.017-1.391-0.379-4.535-1.599-5.312l-0.269-1.657l-0.608-3.754  c0.916-3.009,1.254-5.533,1.328-7.481c0.108-2.886-0.354-4.51-0.377-4.576c-0.149-0.479-0.44-0.78-0.836-0.977  c-0.195-0.873-0.654-1.587-1.422-2.076l-0.269-3.605l-0.013-0.159c-0.03-0.394-0.06-0.868-0.621-0.871l-0.771-0.003l-0.014-0.043  l0.023-0.104c0.455-3.082,0.318-6.699-0.154-10.056c-0.148-1.078-0.336-2.128-0.549-3.125c0.064-0.117,0.525-0.706,0.498-1.043  l-0.004-0.113c0.188-0.152,0.438-0.371,0.438-0.634v-1.58c0-0.261-0.209-0.406-0.279-0.451l-0.062-0.039l-0.117-0.637  c0.295-0.35,0.941-1.124,1.057-1.282c0.238-0.334,0.125-0.798,0.055-1.012l-0.252-1.319l-0.428-2.236  c-0.059-0.298-0.25-0.706-0.656-0.851c-0.408-0.216-0.957-0.616-1.416-0.652c-0.297-0.141-0.691,0.087-0.891,0.3  c-0.039,0.043-0.064,0.08-0.064,0.08l-0.553,0.831l-0.297-2.069c0.172-0.133,0.324-0.302,0.426-0.461  c0.199-0.334,0.324-0.833,0.4-1.219l0.422-2.022c0.887-0.38,1.35-0.786,1.482-1.819l0.121-1.116l0.119-1.099  c0.432,0.297,1.047,0.226,1.518,0.075l0.139-0.05l0.227,1.073l0.512,2.408l0.912,1.761l-0.4,0.209  c-0.146,0.1-0.307,0.286-0.252,0.542c0.15,0.712,0.168,2.275,1.156,2.584L65.77,34.61l0.354,1.659l1.619,7.614  c0.123,0.59,0.676,0.979,1.267,0.913c0.256,0.288,0.521,0.418,0.807,0.458c-0.082,0.201-0.114,0.44-0.157,0.656l-0.181,0.722  c-0.101,0.014-0.138,0.026-0.207,0.058c-0.082,0.047-0.146,0.114-0.196,0.196l-0.382,0.62l-0.225,0.365  c-0.396,0.048-0.912,0.401-0.742,0.879c0.556,1.704,0.258,1.308,1.369,2.493l1.627,0.59l1.287,0.187l2.153-1.742l0.354,0.042  c0.129,0.013,0.276-0.018,0.396-0.119C75.193,49.953,74.997,48.686,74.716,47.501z M45.779,13.286  c0.077-0.03,0.156,0.011,0.195,0.115l0.632,1.678h0.796l0.325-1.412h-1.19c-0.062,0-0.117-0.055-0.117-0.116l-0.002-0.536h-0.846  C45.638,13.113,45.708,13.203,45.779,13.286z M46.419,7.495V6.663l-0.764,0.438v0.867v4.812h0.764v-0.215h-0.561v-0.648h0.561  v-0.237h-0.561v-0.647h0.561v-0.237h-0.561V10.15h0.561V9.912h-0.561V9.264h0.561V9.027h-0.561V8.379h0.561V8.142h-0.561V7.495  H46.419z M47.22,7.081c-0.25,0-0.467-0.033-0.566-0.179V8.14l0.632-0.131l-0.051-0.172l1.52-0.482V6.782l-1.467-1.278l-0.521,0.29  v0.44c0.108-0.114,0.258-0.198,0.424-0.251c0.32-0.102,0.467-0.132,0.657,0.688C47.926,7.009,47.566,7.081,47.22,7.081z   M52.637,19.591l0.528-1.405h-5.441l0.528,1.405H52.637z M53.83,16.419h-6.772l0.577,1.533h5.618L53.83,16.419z M54.247,15.313  h-7.605l0.328,0.872h6.949L54.247,15.313z M52.083,5.126l0.708-0.556l-0.708-0.405V5.126z M54.469,13.55  c0,0.062-0.056,0.116-0.117,0.116h-1.189l0.324,1.413h0.797l0.633-1.678c0.039-0.104,0.117-0.145,0.193-0.116  c0.072-0.082,0.143-0.173,0.207-0.271h-0.846L54.469,13.55z M53.701,5.983c0.164,0.053,0.312,0.137,0.422,0.251v-0.44l-0.521-0.29  l-1.468,1.278v0.574l1.521,0.482L53.605,8.01l0.631,0.131V6.902c-0.104,0.146-0.316,0.179-0.566,0.179  c-0.346,0-0.706-0.072-0.628-0.41C53.232,5.852,53.379,5.881,53.701,5.983z M54.471,12.565v0.214h0.762V7.967V7.101l-0.762-0.438  v0.832h0.559v0.647h-0.559v0.237h0.559v0.648h-0.559v0.237h0.559v0.648h-0.559v0.237h0.559v0.647h-0.559v0.237h0.559v0.647h-0.559  v0.237h0.559v0.648H54.471z M65.346,74.344c0.131,0.436,0.236,0.861,0.32,1.317c0.32-1.272,0.531-2.442,0.666-3.498  c-0.561-0.817-1.279-1.425-1.771-1.782C64.509,70.92,64.447,71.46,64.382,72c0.16,0.285,0.353,0.684,0.539,1.156  c0.06,0.145-0.157,0.232-0.217,0.088c-0.134-0.335-0.267-0.629-0.392-0.873c-0.054,0.396-0.11,0.791-0.174,1.188  c0.495,0.734,0.911,2.019,1.157,3.445c0.08-0.266,0.154-0.527,0.218-0.812c-0.091-0.641-0.222-1.205-0.394-1.779  C65.076,74.262,65.301,74.193,65.346,74.344z M54.682,25.031v0.286l2.045-0.286l2.84-0.398v-0.905l-4.885,0.685V25.031z   M54.714,26.395l4.853-0.679v-0.685v-0.162l-1.149,0.162l-3.733,0.523v0.656h-0.002C54.682,26.276,54.693,26.339,54.714,26.395z   M60.783,26.976c0.232-0.179,0.363-0.621,0.402-0.905l0.111-1.041l0.234-2.169c-0.004-0.023,0.002-0.047,0.012-0.072l0.037-0.062  l0.168-0.244v-4.002l-0.896,3.202c-0.082,0.262-0.228,0.426-0.414,0.535c0.021,0.069,0.033,0.143,0.033,0.22v2.593v0.368  c0,0.356-0.24,0.687-0.564,0.818c-0.018,0.134-0.104,0.258-0.283,0.283l-0.146,0.02l0.502,0.884  C60.164,27.33,60.525,27.173,60.783,26.976z M59.564,26.056v-0.103l-4.672,0.654c0.088,0.052,0.195,0.075,0.317,0.058L59.564,26.056  z M54.682,24.176l4.885-0.684V22.85l-4.885,0.684V24.176z M59.23,21.645l-5.153,0.696c0.032,0.441,0.073,1.275,0.06,2.69  c-0.007,0.889-0.035,2.006-0.101,3.398c-0.03,0.659-0.062,1.241-0.091,1.756c0.854,0.049,1.554,0.104,2.127,0.161  c0.154,0.015,0.13,0.249-0.024,0.233c-0.569-0.057-1.267-0.112-2.114-0.16l-0.014,0.195c3.337,0.188,4.367,0.492,4.65,0.612  c0.16-0.083,0.302-0.212,0.396-0.363c0.146-0.246,0.265-0.725,0.318-1.009l0.457-2.192l-0.197-0.348l-0.362,1.768  c-0.031,0.153-0.263,0.106-0.229-0.047l0.414-2.03l-0.246-0.436l-1.31,0.183l-2.56,0.358c-0.553,0.07-1.022-0.335-1.022-0.9v-1.18  l0.002-1.811c0.004-0.117,0.035-0.229,0.066-0.339c0.059-0.206,0.237-0.269,0.395-0.232c0.137-0.144,0.316-0.244,0.519-0.271  l4.464-0.625c0.271-0.038,0.518,0.067,0.66,0.258c0.131-0.081,0.229-0.196,0.293-0.392l1.098-3.913l0.023-0.091v-1.493l-0.105-0.108  c0.008,0.042,0.012,0.079,0.012,0.108L60.32,20.9C60.148,21.443,59.718,21.551,59.23,21.645z M59.8,25.826v0.183  c0.25-0.092,0.438-0.345,0.438-0.61v-0.368v-2.593c0-0.294-0.231-0.497-0.53-0.455l-4.465,0.625  c-0.312,0.043-0.562,0.333-0.562,0.641v0.049l4.982-0.698c0.072-0.01,0.135,0.042,0.135,0.116v0.886v1.141H59.8v0.288V25.826z   M69.277,96.795c0.106,0.075,0.224,0.137,0.345,0.188c-0.052-0.264-0.086-0.521-0.123-0.768c-0.104-0.681-0.207-1.328-1.039-1.377  v0.508C69.044,95.523,69.169,96.094,69.277,96.795z M48.988,6.775v0.579l1.339,1.371V7.183l-1.1-0.67L48.988,6.775z M56.923,16.705  c0,0.303,0.246,0.547,0.548,0.547h0.051c0.304,0,0.545-0.245,0.545-0.546v-1.227l-1.143-0.069L56.923,16.705z M60.211,98.585  c-0.123,0.147-0.246,0.304-0.318,0.396h0.055h0.199h0.301h1.906h0.92h1.246h0.838h0.621h0.229h0.27h0.178  c-0.076-0.096-0.199-0.256-0.322-0.398c-0.055-0.048-0.116-0.066-0.133-0.066h-5.852C60.328,98.514,60.264,98.537,60.211,98.585z   M67.241,94.708c0.612,0.793,1.368,2.125,2.319,2.5c0.123,0.048,0.228,0.076,0.306,0.095v0.521c0,0.109,0.211,0.287,0.233,0.314  v0.942h-3.16c0.01-0.063-0.015-0.136-0.062-0.192c-0.155-0.188-0.563-0.721-0.717-0.812c-0.056-0.034-0.129-0.062-0.197-0.062  h-0.127h-0.108h-0.185h-0.963h-0.59h-0.734h-0.396h-0.454H60.79h-0.209c-0.285,0-0.649,0.557-0.813,0.754  c-0.067,0.082-0.188,0.192-0.164,0.313h-3.16v-0.942c0.025-0.027,0.236-0.205,0.236-0.314v-0.523  c0.487-0.109,0.907-0.394,1.211-0.763c0.787-0.957,1.168-1.515,1.412-1.83c0.145-0.188,0.231-0.276,0.315-0.317v1.438  c0,0.222,0.332,0.222,0.332,0v-1.472h0.72h0.988l0.639,0.89c0.014,0.017,0.075,0.049,0.098,0.049h1.758  c0.02,0,0.084-0.032,0.096-0.049l0.637-0.89h0.99h0.721v1.472c0,0.222,0.332,0.222,0.332,0v-1.438  C67.014,94.432,67.1,94.521,67.241,94.708z M67.107,97.957l-0.015-1.623l-0.834,1.288h-5.973l-0.834-1.288l-0.015,1.623H67.107z   M66.068,83.812l-0.424-2.606l-0.593-3.629c-0.331-2.378-1.087-4.071-1.673-4.31l-0.051,0.307c0.385,0.4,0.75,1.173,1.033,2.145  c0.045,0.149-0.182,0.217-0.227,0.064c-0.25-0.854-0.553-1.52-0.857-1.91c-0.215,1.252-0.396,2.016-0.508,2.408  c0.064,0.039,0.109,0.107,0.121,0.188l0.016,0.98l0.004,0.248l0.01,0.539l0.002,0.211c0,0,0,0.059-0.02,0.109  c-0.016,0.053-0.057,0.1-0.104,0.127c-0.045,0.024-0.094,0.03-0.094,0.03l-1.158,0.163c-0.133,0.021-0.258-0.068-0.281-0.204  l-0.355-1.319l-0.156-0.584c-0.014-0.08,0.01-0.156,0.092-0.238c-0.219-0.357-0.602-1.034-1.143-2.155  c-0.186,0.458-0.291,1.183-0.297,2.071c-0.004,0.156-0.236,0.156-0.234,0c0.008-1.014,0.145-1.854,0.402-2.348l-0.135-0.283  c-0.492,0.379-0.754,2.22-0.42,4.608l0.33,2.781l0.414,3.493c0.027,0.22-0.303,0.259-0.328,0.039l-0.051-0.426  c-0.055,0.062-0.104,0.123-0.15,0.188c-0.479,0.696-0.174,2.746-0.105,3.347l0.016,0.117l0.826-2.46  c0.092-0.28,0.426-0.259,0.658-0.293l0.123-0.019c0.412-0.088,0.584-0.523,0.691-0.881l0.104-0.303  c0.021-0.058,0.055-0.105,0.133-0.177c0.09-0.065,0.17-0.065,0.277-0.082l1.631-0.229c0.104-0.017,0.248-0.053,0.38-0.023  c0.079,0.023,0.151,0.072,0.22,0.173l0.16,0.231c0.281,0.435,0.557,0.681,0.906,0.656l0.188-0.024  c0.228-0.032,0.496-0.122,0.652,0.106l1.471,2.135c-0.139-1.051-0.403-2.271-0.707-2.867c-0.137-0.271-0.287-0.417-0.53-0.572  l0.067,0.421C66.432,83.979,66.104,84.031,66.068,83.812z M69.311,92.664l0.687-0.146v-0.078v-3.137l-1.396-0.218  c-0.009,0.604-0.015,1.631,0,1.925l0.612,1.43L69.311,92.664z M66.491,86.729H63.27h-3.24l-1.86,4.354l-0.583,1.356l-0.496,1.164  v0.594h0.51l1.098-1.758l1.094-1.746l0.006-0.344l0.197-0.308l0.168-3.106c0.008-0.154,0.242-0.145,0.234,0.015l-0.162,2.979h6.146  l-0.162-2.98c-0.008-0.156,0.227-0.168,0.234-0.014l0.16,3.101l0.203,0.313l0.007,0.448l1.026,1.642l1.099,1.758h0.509v-0.594  l-0.496-1.164l-0.592-1.377l-1.82-4.254L66.491,86.729z M65.839,98.25H65.73h-0.186h-0.963h-0.59h-0.734h-0.396h-0.454H60.79h-0.209  c-0.019,0-0.041,0.01-0.067,0.029h5.521c-0.027-0.021-0.05-0.029-0.066-0.029H65.839z M55.309,18.832  c-0.386,0.516-0.584,0.762-0.687,0.917c-0.087,0.132-0.089,0.171-0.089,0.302c0.002,0.406,0,0.91,0,0.91  c0.003,0.028,0.004,0.047,0.015,0.059c0.103,0.006,4.396-0.534,4.41-0.536c0.489-0.096,0.772-0.181,0.897-0.581l0.192-0.692  c0.045-0.099,0.024-0.166-0.118-0.176l-4.443-0.308C55.419,18.732,55.354,18.787,55.309,18.832z M56.691,15.439v1.267  c0,0.431,0.348,0.78,0.779,0.78h0.053c0.43,0,0.779-0.35,0.779-0.78v-1.213l0.649,0.04v1.173c0,0.431,0.349,0.78,0.78,0.78h0.052  c0.431,0,0.78-0.35,0.78-0.78V15.63l0.713,0.042c0.056,0.109,0.134,0.339,0.142,0.437l-1.321,4.724  c-0.127,0.4-0.412,0.485-0.9,0.581l-5.141,0.694c-0.01-0.095-0.018-0.147-0.021-0.168c-0.005-0.427-0.351-0.771-0.78-0.771h-5.623  c-0.427,0-0.775,0.344-0.779,0.771c-0.003,0.021-0.011,0.074-0.021,0.168l-5.141-0.694c-0.488-0.095-0.773-0.181-0.9-0.581  l-1.322-4.724c0.008-0.098,0.088-0.328,0.141-0.437l0.714-0.042v1.076c0,0.431,0.35,0.78,0.78,0.78h0.05  c0.433,0,0.78-0.35,0.78-0.78v-1.173l0.654-0.04v1.213c0,0.431,0.348,0.78,0.779,0.78h0.05c0.431,0,0.78-0.35,0.78-0.78v-1.267  h-0.001l-0.002-0.043l0.173-0.009l3.056,5.156c0.011,0.02,0.076,0.057,0.102,0.057h5.837c0.025,0,0.088-0.037,0.102-0.057  l3.055-5.156l0.172,0.009V15.439z M46.588,20.054c0.001-0.167-0.009-0.253-0.126-0.432c-0.104-0.157-0.311-0.413-0.705-0.939  c-0.086-0.092-0.235-0.198-0.373-0.187l-4.444,0.307c-0.297,0.019-0.42,0.231-0.326,0.479l0.191,0.688  c0.174,0.544,0.605,0.651,1.092,0.746c0,0,1.084,0.135,2.18,0.271c1.082,0.133,2.214,0.269,2.287,0.265  c0.14-0.015,0.213-0.133,0.224-0.294C46.588,20.958,46.587,20.458,46.588,20.054z M55.505,18.494  c-0.139-0.012-0.284,0.094-0.375,0.187c-0.392,0.526-0.599,0.783-0.702,0.939c-0.119,0.18-0.129,0.266-0.129,0.433l0.004,0.94  c0.01,0.131,0.086,0.243,0.223,0.258c0.072,0.004,1.205-0.132,2.287-0.265c1.096-0.135,2.18-0.271,2.18-0.271  c0.486-0.095,0.918-0.202,1.092-0.746l0.191-0.681c0.096-0.249-0.029-0.467-0.326-0.487L55.505,18.494z M61.221,2.879l-0.154,0.419  l1.68,0.45l0.072-0.441l-0.393-0.105l0.305-1.138l0.412,0.007l-0.012-0.278l-1.426-0.382l-0.145,0.235l0.356,0.2l-0.306,1.138  L61.221,2.879z M45.578,18.833c-0.044-0.045-0.109-0.1-0.178-0.105l-4.445,0.308c-0.132,0.008-0.166,0.058-0.118,0.177l0.195,0.69  c0.124,0.4,0.409,0.486,0.897,0.581c0,0,1.08,0.135,2.175,0.27c1.108,0.136,2.192,0.268,2.236,0.266  c0.01-0.01,0.012-0.033,0.012-0.045c0-0.014,0-0.517,0-0.923c0-0.131,0-0.169-0.086-0.302C46.162,19.595,45.965,19.35,45.578,18.833  z M47.593,20.366h5.703l3.015-5.085l-1.188-1.49l-0.553,1.464c-0.018,0.05-0.051,0.081-0.088,0.097l-1.654,4.397  c-0.016,0.033-0.076,0.076-0.111,0.076h-4.543c-0.035,0-0.1-0.043-0.111-0.076l-1.656-4.397c-0.037-0.016-0.07-0.047-0.088-0.097  l-0.553-1.464l-1.186,1.49L47.593,20.366z M47.522,7.991l0.114,0.387l1.202-0.062l1.059,0.288l-1.031-1.04L47.522,7.991z   M57.434,14.841l-0.078,0.264l2.414,0.145l-2.062-0.553C57.589,14.665,57.468,14.718,57.434,14.841z M46.653,12.902v0.501  l0.705-0.491v-2.44l-0.594-1.01V8.456l-0.111,0.022V12.902z M59.787,15.017l0.105-0.39l-1.804-0.483l-0.104,0.39L59.787,15.017z   M58.184,13.377c-0.074,0.017-0.127,0.067-0.149,0.141c-0.011,0.026-0.028,0.103-0.035,0.13c-0.034,0.117,0.034,0.233,0.146,0.265  l1.938,0.519c0.11,0.029,0.226-0.036,0.256-0.146l0.037-0.134c0.026-0.113-0.041-0.227-0.153-0.257l-1.927-0.519  C58.266,13.369,58.206,13.372,58.184,13.377z M59.188,16.706c0,0.302,0.246,0.546,0.547,0.546h0.052  c0.301,0,0.547-0.245,0.547-0.546v-1.091l-1.146-0.069V16.706z M59.816,7.338c-0.48,2.068-0.904,4.207-0.904,4.207l1.574,0.432  c-0.002-0.01,0.701-2.074,1.322-4.105c0.312-1.023,0.568-2.203,0.75-3.121l-1.834-0.492C60.421,5.144,60.057,6.296,59.816,7.338z   M58.658,12.018l0.314,0.185l-0.019,1.104l0.604,0.166l0.547-0.968l0.362-0.002l0.011-0.286l-1.687-0.451L58.658,12.018z   M60.8,4.037l1.804,0.483l0.101-0.541l-1.72-0.46L60.8,4.037z M62.839,1.175c-0.226-0.068-0.459-0.136-0.688-0.179  c-0.045-0.008-0.172-0.043-0.205,0.016l-0.11,0.189l1.295,0.348l-0.003-0.226C63.124,1.246,62.872,1.184,62.839,1.175z   M35.554,77.003c0.248-1.428,0.665-2.71,1.16-3.444c-0.062-0.396-0.119-0.791-0.176-1.188c-0.123,0.244-0.256,0.538-0.391,0.873  c-0.057,0.145-0.274,0.057-0.217-0.088c0.189-0.475,0.381-0.871,0.539-1.156c-0.064-0.54-0.126-1.08-0.176-1.619  c-0.492,0.357-1.211,0.965-1.772,1.781c0.134,1.055,0.345,2.225,0.665,3.498c0.083-0.456,0.189-0.883,0.318-1.318  c0.046-0.148,0.27-0.08,0.225,0.068c-0.172,0.576-0.301,1.141-0.393,1.779C35.4,76.477,35.474,76.738,35.554,77.003z M30.399,26.069  l0.01,0.169l2.148,0.457l0.353-1.665l0.068-0.312l-0.498-0.765l0.497-2.065c-0.679-0.32-1.019-0.662-1.429-1.23l-0.93,4.373  L30.399,26.069z M29.555,28.677l-0.338,1.589c-0.059,0.271,0.113,0.54,0.381,0.596l0.88,0.188l0.02-0.14l0.012-0.045l0.528-1.358  c-0.412-0.125-0.787-0.432-0.821-0.873L29.555,28.677z M32.784,26.744l0.586,0.125l0.084-0.35l0.699,0.516l0.931,0.198l0.472-2.202  l0.396-1.849c0.004-0.017,0.01-0.033,0.016-0.047l-2.773-1.15l-0.463,1.926l0.494,0.762l-0.076,0.358L32.784,26.744z M30.587,19.624  l0.516,1.535l0.189-0.888l-0.531-1.066L30.587,19.624z M36.696,23.183l-3.502-1.453c-0.831-0.367-1.137-0.733-1.674-1.523  l-2.406-4.838l-0.028-0.048c-0.054-0.1-0.058-0.209,0.03-0.298c0.164-0.207,0.303-0.384,0.426-0.527  c0.342-0.399,0.572-0.555,1.139-0.555h6.096c1.034,0.001,1.872,0.84,1.872,1.875v4.789c0,0.562-0.006,2.321-0.006,2.48  c0,0.503-0.525,0.594-1.172,0.386C37.223,23.379,37.073,23.339,36.696,23.183z M38.103,17.736c0.073,0.009,0.133-0.044,0.133-0.117  l-0.016-1.804c0-0.797-0.646-1.443-1.443-1.443h-6.096c-0.32,0-0.438,0.053-0.545,0.136c-0.117,0.09-0.653,0.637-0.588,0.769  l0.74,1.488c0.01,0.02,0.07,0.062,0.092,0.065L38.103,17.736z M28.021,36.267l-0.773,3.641c0.136,0.007,0.295,0.008,0.392-0.014  l0.77-3.627l0.573-2.71l-0.368-0.079L28.021,36.267z M29.423,38.596l0.494-2.33l0.511-2.402l-1.12-0.237l-0.562,2.639l-0.713,3.358  L29.423,38.596z M35.783,27.213l0.464-2.182l0.349-1.637l-0.32-0.132l-0.382,1.769l-0.484,2.271l0.295,0.062L35.783,27.213z   M30.973,44.598c0.086-0.021,0.172-0.059,0.251-0.109c0.06-0.039,0.114-0.085,0.159-0.136l-3.939-0.837  c0.022,0.067,0.055,0.135,0.097,0.197c0.065,0.097,0.151,0.181,0.243,0.239c0.121,0.075,0.226,0.086,0.365,0.116l2.404,0.511  C30.713,44.613,30.806,44.639,30.973,44.598z M36.776,14.605H30.68c-0.358,0-0.419,0.071-0.634,0.324  c-0.073,0.085-0.163,0.193-0.257,0.311l0.68,1.365l7.529,0.884l-0.013-1.672C37.986,15.148,37.442,14.605,36.776,14.605z   M35.316,27.522l-0.545,1.072c-0.102,0.197-0.396,0.046-0.296-0.15l0.506-0.993l-4.56-0.969l0.122,2.085c0,0,0,0.032,0.007,0.07  c0.054,0.307,0.321,0.483,0.606,0.562c0.092-0.416,0.49-0.68,0.922-0.592l1.172,0.25c0.422,0.089,0.69,0.494,0.611,0.911  c0.291,0.031,0.642-0.041,0.771-0.332l0.959-1.856L35.316,27.522z M33.419,31.963l-2.746-0.6l-0.094,0.714l2.639,0.561  L33.419,31.963z M30.536,32.398c-0.064,0.312,0.125,0.603,0.418,0.666l1.529,0.324c0.293,0.057,0.576-0.131,0.639-0.422l0.03-0.102  l-2.604-0.554L30.536,32.398z M33.541,31.554l0.085-1.795c0.062-0.325-0.123-0.611-0.424-0.675l-1.17-0.249  c-0.307-0.062-0.582,0.122-0.646,0.415l-0.658,1.696l-0.023,0.185l2.783,0.606L33.541,31.554z M35.14,31.519l0.337-1.583  l-0.572-0.301c-0.205,0.373-0.648,0.503-1.06,0.464l-0.07,1.464c-0.004,0.042-0.006,0.053-0.012,0.062L33.73,31.74l0.81,0.172  C34.823,31.972,35.081,31.797,35.14,31.519z M34.312,32.203l-0.676-0.144l-0.285,0.955c-0.095,0.418-0.493,0.681-0.904,0.605  l-1.541-0.327c-0.42-0.089-0.686-0.503-0.602-0.921l0.131-0.992l-0.705-0.15l-1.046,2.024l0.397,0.084l0.281-0.566  c0.1-0.198,0.396-0.05,0.298,0.148l-0.243,0.49l5.029,1.069L34.312,32.203z M31.283,47.282l-0.191-0.021l0.055,0.241l0.284,1.221  c0.133-0.167,0.297-0.323,0.479-0.423l-0.491-0.799L31.283,47.282z M30.947,50.545l0.602-0.238l-0.455-2.014l-1.2,0.081  L30.947,50.545z M32.659,42.984l0.256-1.209l-1.031,0.018l-0.092,0.387C31.677,42.72,32.241,42.892,32.659,42.984z M31.993,50.044  l0.097-0.109c0.014-0.061,0.338-1.069,0.426-1.338c-0.416-0.201-0.773,0.208-0.954,0.516L31.993,50.044z M34.085,36.268l0.33-1.555  l-3.461-0.736v0.625h-0.443l-0.354,1.665l-0.515,2.423c-0.001,0.009-0.036,0.063-0.044,0.07l-1.758,1.293  c-0.053,0.042-0.208,0.118-0.643,0.088l-0.504,2.368c-0.059,0.269,0.115,0.533,0.384,0.59l4.829,1.027  c0.269,0.057,0.533-0.115,0.59-0.383l0.113-0.53l-0.251-0.053c-0.377-0.08-0.921-0.437-0.796-1.03l0.273-1.135l1.25-0.022  L34.085,36.268z M55.758,14.056l0.797,1l0.135,0.008v-0.67l-0.336-0.338H55.758z M44.196,14.395v0.67l0.139-0.008l0.794-1h-0.594  L44.196,14.395z M29.622,51.236l-0.123-1.178c-0.022-0.004-0.048-0.011-0.053-0.015l-0.693-0.501l-0.348,1.235l0.667,0.537  L29.622,51.236z M29.852,51.202l0.152-0.022l0.773-0.277l-0.525-0.944l-0.521,0.076L29.852,51.202z M29.421,47.502l-0.022-0.174  l-0.296-0.331l-0.151-1.371l-0.249,0.029l-0.353,1.33l0.346,0.517l0.383,0.573c0.008,0.012,0.021,0.08,0.017,0.093l-0.282,1.129  l0.73,0.529l0.172-0.025L29.421,47.502z M30.291,45.471L29.1,45.609l0.063,0.533l0.3,0.322l1.097-0.532l-0.066-0.296  C30.457,45.527,30.398,45.453,30.291,45.471z M29.337,44.66l-1.705,0.172c-0.211,0.027-0.129,0.406-0.089,0.623l2.288-0.262  l-0.047-0.438L29.337,44.66z M30.756,46.805l-1.119,0.182l0.096,0.514l0.118,0.642l1.189-0.082l-0.128-0.56L30.756,46.805z   M28.498,49.589l-1.311,0.182l1.021,0.847L28.498,49.589z M27.323,45.813c-0.178,0.555-0.33,1.118-0.459,1.686h-0.002  c-0.107,0.475-0.199,0.954-0.273,1.435c-0.036,0.235-0.066,0.468-0.094,0.698l2.064-0.289l0.297-1.181l-0.44-0.661l-0.289-0.432  c-0.008-0.012-0.02-0.081-0.016-0.095l0.345-1.292L27.323,45.813z M74.299,48.935c-0.076-0.481-0.166-0.959-0.275-1.434  c-0.127-0.567-0.279-1.13-0.461-1.686l-1.133-0.131l0.346,1.291c0.008,0.014-0.008,0.083-0.016,0.095l-0.285,0.431h-0.002  l-0.439,0.661l0.297,1.182l2.062,0.289C74.368,49.403,74.334,49.171,74.299,48.935z M68.404,33.388l1.529-0.324  c0.293-0.063,0.481-0.354,0.418-0.666L70.34,32.31l-2.604,0.554l0.029,0.102C67.827,33.257,68.113,33.445,68.404,33.388z   M67.468,31.963l0.201,0.675l2.642-0.561l-0.095-0.714L67.468,31.963z M69.503,29.25c-0.065-0.292-0.34-0.477-0.647-0.415  l-1.17,0.249c-0.299,0.064-0.483,0.35-0.422,0.675l0.086,1.795l0.053,0.183l2.783-0.606l-0.024-0.185L69.503,29.25z M65.747,31.519  c0.062,0.278,0.317,0.453,0.601,0.393l0.812-0.172l-0.035-0.115c-0.004-0.009-0.006-0.02-0.012-0.062l-0.068-1.464  c-0.414,0.039-0.854-0.091-1.061-0.464l-0.572,0.301L65.747,31.519z M67.025,29.767c-0.078-0.417,0.188-0.822,0.608-0.911  l1.175-0.25c0.433-0.088,0.828,0.176,0.922,0.592c0.285-0.079,0.554-0.255,0.606-0.562c0.006-0.038,0.006-0.07,0.006-0.07  l0.121-2.085l-4.562,0.969l0.508,0.993c0.104,0.196-0.193,0.348-0.295,0.15l-0.549-1.072l-0.271,0.058l0.959,1.856  C66.387,29.726,66.734,29.798,67.025,29.767z M67.695,21.984l-2.773,1.15c0.006,0.014,0.012,0.03,0.016,0.047l0.396,1.849  l0.475,2.202l0.93-0.198l0.701-0.516l0.082,0.35l0.584-0.125L67.74,25.03l-0.076-0.358l0.494-0.762L67.695,21.984z M64.279,23.4  l0.354,1.631l0.474,2.182l0.078,0.152l0.295-0.062l-0.487-2.271l-0.38-1.769L64.279,23.4z M69.741,47.501l0.057-0.241l-0.19,0.021  L69.473,47.5l-0.494,0.8c0.184,0.099,0.348,0.255,0.479,0.423L69.741,47.501z M55.466,12.766c0.339-0.616,0.548-1.455,0.548-2.386  c0-0.934-0.201-1.775-0.548-2.393V12.766z M71.674,30.266l-0.338-1.589l-0.662-0.043c-0.033,0.441-0.408,0.747-0.82,0.873  l0.526,1.358l0.013,0.045l0.021,0.14l0.879-0.188C71.559,30.806,71.732,30.537,71.674,30.266z M71.771,15.37l-2.404,4.838  c-0.539,0.79-0.846,1.156-1.678,1.523l-3.5,1.453c-0.379,0.155-0.525,0.196-0.775,0.288c-0.646,0.208-1.17,0.117-1.17-0.386  c0-0.16-0.008-1.918-0.008-2.48v-4.789c0-1.035,0.842-1.874,1.873-1.874h6.098c0.566,0,0.797,0.156,1.141,0.555  c0.119,0.143,0.262,0.32,0.428,0.527C71.911,15.162,71.794,15.339,71.771,15.37z M71.341,15.277c0.058-0.12-0.245-0.413-0.319-0.501  c-0.263-0.304-0.377-0.404-0.812-0.404h-6.096c-0.797,0-1.443,0.646-1.443,1.443l-0.016,1.804c0,0.073,0.059,0.126,0.131,0.117  l7.725-0.906c0.022-0.002,0.082-0.045,0.09-0.065L71.341,15.277z M45.421,12.767v-4.78c-0.344,0.618-0.547,1.458-0.547,2.394  C44.874,11.312,45.085,12.15,45.421,12.767z M69.339,20.657c-0.412,0.572-0.752,0.913-1.426,1.232l0.496,2.065l-0.496,0.765  l0.063,0.312l0.354,1.665l2.146-0.457l0.01-0.169l-0.219-1.038L69.339,20.657z M70.128,19.206l-0.53,1.067l0.188,0.886l0.517-1.535  L70.128,19.206z M70.611,14.694c-0.055-0.042-0.119-0.088-0.402-0.088h-6.096c-0.668,0-1.209,0.542-1.209,1.21l-0.014,1.672  l7.527-0.884l0.68-1.364C70.952,15.057,70.796,14.836,70.611,14.694z M70.454,31.379l0.131,0.992  c0.084,0.418-0.185,0.832-0.603,0.921l-1.541,0.327c-0.409,0.076-0.812-0.187-0.903-0.605l-0.285-0.955l-0.676,0.144l-0.136,2.275  l5.029-1.069l-0.242-0.49c-0.101-0.198,0.196-0.346,0.297-0.148l0.281,0.566l0.397-0.084l-1.047-2.024L70.454,31.379z   M72.275,33.477l-0.369,0.079l0.572,2.71l0.771,3.627c0.097,0.022,0.256,0.021,0.394,0.014l-0.772-3.641L72.275,33.477z   M71.727,46.142l0.065-0.533L70.6,45.471c-0.106-0.018-0.164,0.056-0.203,0.165l-0.065,0.296l1.099,0.532L71.727,46.142z   M72.075,49.296l-0.281-1.129c-0.004-0.013,0.009-0.081,0.017-0.093l0.383-0.573l0.347-0.517l-0.353-1.33l-0.252-0.029l-0.147,1.371  l-0.297,0.331L71.469,47.5l-0.296,2.3l0.173,0.025L72.075,49.296z M70.132,46.805l-0.155,0.696l-0.127,0.56l1.188,0.082l0.116-0.642  l0.097-0.514L70.132,46.805z M68.374,48.597c0.088,0.269,0.412,1.277,0.426,1.338l0.097,0.109l0.431-0.931  C69.146,48.805,68.79,48.396,68.374,48.597z M71.035,51.201l0.121-1.168l-0.521-0.077L70.109,50.9l0.773,0.279L71.035,51.201z   M70.996,48.373l-1.198-0.081l-0.457,2.014l0.603,0.238L70.996,48.373z M72.482,50.777l-0.351-1.234l-0.69,0.5  c-0.004,0.004-0.03,0.011-0.053,0.016l-0.123,1.177l0.551,0.08L72.482,50.777z M69.098,42.18l-0.093-0.387l-1.032-0.018l0.258,1.209  C68.646,42.892,69.21,42.719,69.098,42.18z M71.466,38.596l1.392,1.028l-0.713-3.358l-0.562-2.639l-1.123,0.237l0.511,2.402  L71.466,38.596z M74.193,42.507l-0.504-2.368c-0.436,0.031-0.588-0.044-0.643-0.087l-1.758-1.293  c-0.008-0.006-0.043-0.061-0.045-0.07l-0.516-2.423l-0.354-1.665h-0.441v-0.626l-3.461,0.736l0.328,1.555l1,4.705l1.25,0.022  l0.271,1.135c0.13,0.594-0.415,0.95-0.795,1.03l-0.25,0.053l0.113,0.53c0.057,0.271,0.319,0.44,0.59,0.383l4.83-1.027  C74.079,43.04,74.25,42.776,74.193,42.507z M40.557,16.706c0.001,0.302,0.247,0.546,0.547,0.546h0.05  c0.303,0,0.548-0.245,0.548-0.546v-1.16l-1.145,0.069V16.706z M73.104,43.952c0.094-0.059,0.18-0.142,0.244-0.239  c0.041-0.062,0.074-0.13,0.096-0.197l-3.938,0.837c0.045,0.051,0.1,0.097,0.16,0.136c0.076,0.05,0.162,0.088,0.25,0.109  c0.166,0.041,0.26,0.015,0.42-0.019l2.402-0.511C72.88,44.038,72.98,44.027,73.104,43.952z M73.701,49.771l-1.309-0.183l0.289,1.03  L73.701,49.771z M73.256,44.831l-1.705-0.172l-0.447,0.095l-0.047,0.438l2.287,0.262C73.383,45.237,73.467,44.858,73.256,44.831z   M41.913,72.71c-0.125,0.286-0.245,0.554-0.361,0.802c0.154,0.1,0.285,0.27,0.39,0.494c0.162-0.352,0.32-0.705,0.476-1.059  L41.913,72.71z M42.504,70.723l-0.401-0.752l-0.707-1.318c-0.043,0.023-0.086,0.043-0.132,0.061  c-0.038,0.014-0.075,0.021-0.114,0.027c-0.154,0.025-0.303-0.008-0.46-0.027c0,0-1.323-0.184-1.56-0.24  c-0.125-0.052-0.219-0.115-0.291-0.193L37.267,69.9l0.008,0.07l0.049,0.451c0.404,3.467,0.816,5.197,0.992,5.834l1.461,0.206  c0.345-0.562,1.215-2.108,2.561-5.335L42.504,70.723z M38.193,76.531l-0.014,0.923l-0.003,0.245l-0.008,0.539l-0.004,0.221  c0.042,0.033,1.152,0.186,1.168,0.188l0.042-0.09l0.021-0.08l0.262-0.965l0.06-0.221l0.151-0.562l-1.531-0.23  C38.18,76.473,38.193,76.531,38.193,76.531z M37.422,72.932c-0.042-0.271-0.083-0.562-0.126-0.871l-0.552,0.088  c0.052,0.383,0.106,0.77,0.165,1.149C37.075,73.109,37.247,72.982,37.422,72.932z M32.485,88.745  c0.002,0.301,0.01,1.112,0.008,1.702l0.729-1.702H32.485z M35.16,85.496c-0.022-0.002-0.078,0.02-0.103,0.055l-0.23,0.322  c0.021-0.002,0.042-0.002,0.064,0.002l4.008,0.562c0.042,0.006,0.071,0.027,0.086,0.057h1.432l-0.072-0.197  c-0.014-0.042-0.061-0.078-0.082-0.083L35.16,85.496z M37.065,70.225l-0.539,0.062c0.055,0.545,0.116,1.088,0.188,1.63l0.549-0.089  c-0.056-0.426-0.113-0.885-0.172-1.378L37.065,70.225z M40.567,86.221l0.099,0.273h0.232c0.021,0,0.058,0.02,0.083,0.043  l-0.32-0.957c-0.043-0.13-0.345-0.116-0.473-0.135l-0.133-0.018c-0.513-0.111-0.733-0.59-0.873-1.041  c-0.012-0.035-0.078-0.275-0.113-0.324l-0.043-0.045c-0.085-0.021-0.095-0.021-0.16-0.029l-1.885-0.266l-0.054,0.016  c-0.115,0.088-0.161,0.203-0.227,0.299c-0.287,0.438-0.63,0.795-1.124,0.761l-0.199-0.028c-0.099-0.014-0.352-0.101-0.426,0.01  l-1.707,2.479c-0.024,0.174-0.039,0.329-0.049,0.477l1.669-2.312c0.071-0.104,0.206-0.172,0.328-0.152l5.104,0.715  C40.418,86.001,40.53,86.105,40.567,86.221z M43.142,71.217l-0.501-0.211l-0.087,0.213c-0.191,0.459-0.373,0.883-0.545,1.277  l0.503,0.236C42.729,72.232,42.938,71.727,43.142,71.217z M37.266,58.736l-0.305,3.678l0.075-0.035  c0.084-0.562,0.175-1.225,0.285-1.791l0.121-1.617c0.006-0.07,0.074-0.127,0.149-0.127L38.2,58.84  c0.004-0.035,0.008-0.068,0.012-0.104c0.01-0.086,0.02-0.174,0.031-0.26c0.01-0.067,0.022-0.141,0.037-0.211l-0.975,0.004  L37.266,58.736z M35.529,64.566c0.365-0.104,0.814-0.164,1.348-0.229l0.015-0.28c0.008-0.102,0.053-0.684,0.133-1.412  C36.187,63.05,35.716,63.704,35.529,64.566z M37.927,59.452c-0.461,0.536-0.771,4.17-0.801,4.62  c-0.094,1.445-0.106,3.285,0.109,5.531l1.469-1.525c-0.023-0.049-0.041-0.1-0.055-0.153c-0.041-0.172-0.014-0.299,0.012-0.472  l0.607-4.32l-0.156-0.021c-0.427-0.062-1.002-1.742-0.948-3.68L37.927,59.452z M44.279,65.076c0.096-0.441,0.8-4.018,0.503-4.662  l-0.328-0.121c-0.48,1.885-1.5,3.355-1.931,3.296l-0.082-0.011l-0.647,4.499c-0.008,0.052-0.051,0.261-0.17,0.388l-0.041,0.041  l0.781,1.465l0.252,0.473c0.063-0.158,0.125-0.315,0.184-0.473C43.536,68.044,43.99,66.402,44.279,65.076z M32.253,89.085  l-1.395,0.218v3.137v0.078l0.686,0.146l0.094-0.225l0.615-1.43C32.266,90.716,32.259,89.689,32.253,89.085z M44.144,56.053  c0.154,0.741,0.309,1.815,0.3,2.682c-0.003,0.22-0.013,0.424-0.04,0.604c-0.336,2.394-1.617,4.05-1.848,4.017l-3.411-0.479  c-0.221-0.029-0.957-1.852-0.697-4.139v-0.002c0.008-0.074,0.018-0.151,0.028-0.228c0.085-0.61,0.372-1.382,0.643-2.006  c0.269-0.621,0.515-1.084,0.515-1.084c0.24-0.417,0.354-0.545,0.631-0.507l3.412,0.479C43.953,55.43,44.029,55.587,44.144,56.053z   M40.498,55.436l-0.479-0.166l-0.087,0.147c0,0-0.418,0.79-0.761,1.687l1.164-0.648c0,0,0.111-0.389,0.213-0.725  C40.652,55.395,40.498,55.436,40.498,55.436z M44.052,57.791c-0.08-0.957-0.266-1.83-0.266-1.83l-0.044-0.168l-0.506,0.027  c0.001,0-0.135-0.082-0.129,0.269s0.005,0.757,0.005,0.757L44.052,57.791z M39.192,68.245c0.088,0.038,1.531,0.233,1.531,0.233  c0.119,0.018,0.275,0.041,0.389,0.027c0.025-0.002,0.052-0.012,0.078-0.021c0.125-0.049,0.197-0.104,0.253-0.172  c0.039-0.049,0.071-0.104,0.093-0.164c0.012-0.033,0.021-0.068,0.027-0.106l0.646-4.499L39.5,63.165l-0.607,4.319  c-0.019,0.134-0.049,0.252-0.016,0.385c0.018,0.076,0.053,0.148,0.102,0.21C39.035,68.152,39.108,68.209,39.192,68.245z   M42.648,77.258c0.215-1.547,0.086-3.115-0.092-4.041c-0.162,0.366-0.327,0.729-0.494,1.092c0.271,0.846,0.32,2.191,0.163,3.635  C42.372,77.713,42.513,77.484,42.648,77.258z M41.939,88.745l0.729,1.702c-0.003-0.59,0.005-1.401,0.009-1.702H41.939z   M37.582,86.729H34.36l-0.056,0.08l-1.819,4.254l-0.592,1.377l-0.497,1.164v0.594h0.509l1.098-1.758l1.027-1.642l0.006-0.448  l0.201-0.313l0.164-3.101c0.008-0.154,0.242-0.145,0.234,0.015l-0.162,2.979h6.148l-0.162-2.979  c-0.008-0.157,0.226-0.169,0.233-0.015l0.169,3.106l0.197,0.308l0.005,0.344l1.094,1.746l1.099,1.758h0.509v-0.594l-0.497-1.164  l-0.582-1.356l-1.865-4.354H37.582z M43.618,92.664l0.686-0.146v-0.078v-3.137l-1.396-0.218c-0.006,0.604-0.012,1.631,0.002,1.925  l0.612,1.43L43.618,92.664z M36.863,64.572c-0.068,1.449-0.05,3.246,0.176,5.398c0,0.006,0.002,0.014,0.002,0.02l-0.537,0.064  c-0.002-0.029-0.004-0.058-0.006-0.084c-0.145-1.574-0.207-3.158-0.139-4.74c0.006-0.158-0.229-0.168-0.234-0.012  c-0.067,1.584-0.006,3.17,0.132,4.752c0.004,0.047,0.009,0.092,0.013,0.139c-0.464,0.328-1.189,0.906-1.791,1.709  c-0.076-0.666-0.12-1.28-0.144-1.848c-0.109-2.832,0.349-4.398,0.351-4.406C34.905,64.871,35.513,64.742,36.863,64.572z   M35.69,67.672l0.332-0.012c-0.02-0.584-0.025-1.133-0.016-1.643l-0.332-0.006C35.667,66.527,35.672,67.081,35.69,67.672z   M44.549,73.582c-0.319-0.922-0.847-1.738-1.214-2.217c-0.199,0.5-0.408,0.996-0.621,1.492c0.254,0.391,0.324,2.543,0.22,3.92  C43.598,75.635,44.128,74.564,44.549,73.582z M41.83,78.428c0.335-2.393,0.075-4.232-0.419-4.611L41.278,74.1  c0.26,0.492,0.396,1.334,0.402,2.348c0,0.156-0.233,0.156-0.235,0c-0.006-0.891-0.112-1.612-0.298-2.07  c-0.541,1.121-0.924,1.798-1.14,2.154c0.082,0.082,0.103,0.158,0.092,0.238l-0.159,0.584l-0.355,1.32  c-0.023,0.135-0.149,0.225-0.281,0.204l-1.16-0.163c0,0-0.047-0.006-0.094-0.031c-0.046-0.027-0.086-0.074-0.102-0.127  c-0.018-0.052-0.018-0.109-0.018-0.109l0.004-0.211l0.008-0.539l0.004-0.247l0.015-0.979c0.012-0.08,0.056-0.146,0.118-0.189  c-0.106-0.395-0.292-1.155-0.506-2.407c-0.305,0.392-0.607,1.06-0.859,1.91c-0.045,0.149-0.269,0.085-0.225-0.063  c0.287-0.973,0.648-1.744,1.033-2.146l-0.049-0.308c-0.586,0.238-1.339,1.934-1.674,4.312l-0.59,3.629l-0.424,2.605  c-0.037,0.221-0.363,0.166-0.328-0.053l0.068-0.421c-0.246,0.155-0.394,0.304-0.532,0.572c-0.302,0.597-0.569,1.817-0.706,2.868  l1.471-2.135c0.154-0.229,0.426-0.142,0.652-0.107l0.186,0.025c0.354,0.021,0.626-0.225,0.91-0.655l0.16-0.233  c0.066-0.1,0.14-0.148,0.219-0.173c0.13-0.028,0.275,0.009,0.379,0.024l1.631,0.229c0.109,0.016,0.188,0.016,0.279,0.082  c0.078,0.071,0.113,0.119,0.131,0.176l0.1,0.303c0.11,0.356,0.283,0.793,0.694,0.881l0.122,0.02  c0.236,0.034,0.569,0.014,0.663,0.295l0.823,2.459l0.016-0.117c0.066-0.602,0.373-2.648-0.107-3.348  c-0.045-0.064-0.096-0.127-0.151-0.188l-0.05,0.426c-0.025,0.219-0.355,0.18-0.329-0.04l0.413-3.493L41.83,78.428z M41.55,94.709  c0.246,0.316,0.627,0.873,1.414,1.83c0.301,0.369,0.721,0.652,1.211,0.762v0.524c0,0.11,0.209,0.288,0.234,0.315v0.941H41.25  c0.025-0.121-0.097-0.23-0.164-0.312c-0.163-0.197-0.528-0.756-0.812-0.756h-0.209h-1.621h-0.452h-0.398H36.86h-0.592h-0.961h-0.186  h-0.107h-0.128c-0.067,0-0.142,0.028-0.197,0.062c-0.155,0.092-0.561,0.624-0.716,0.812c-0.048,0.057-0.069,0.129-0.062,0.192h-3.16  v-0.942c0.026-0.027,0.235-0.205,0.235-0.314v-0.521c0.078-0.019,0.184-0.047,0.305-0.095c0.951-0.375,1.707-1.707,2.318-2.5  c0.145-0.188,0.23-0.276,0.315-0.317v1.438c0,0.221,0.333,0.221,0.333,0v-1.472h0.72h0.989l0.639,0.89  c0.011,0.017,0.076,0.049,0.095,0.049h1.76c0.019,0,0.082-0.032,0.095-0.049l0.637-0.89h0.99h0.721v1.472  c0,0.221,0.332,0.221,0.332,0v-1.438C41.321,94.432,41.407,94.521,41.55,94.709z M41.415,97.957l-0.016-1.623l-0.832,1.288h-5.973  l-0.834-1.288l-0.015,1.623H41.415z M40.827,90.418l-0.168-0.258h-6.223l-0.166,0.258l-0.004,0.227h3.236h0.156h3.17L40.827,90.418z   M43.604,96.799c0.116,0.079,0.231,0.145,0.348,0.191c-0.093-0.499-0.118-1.035-0.29-1.508c-0.135-0.381-0.364-0.623-0.891-0.646  v0.503C43.37,95.514,43.496,96.087,43.604,96.799z M38.399,95.062l0.506-0.705h-2.648l0.504,0.705H38.399z M36.396,91.092v0.328  l0.1,0.086h2.171l0.1-0.086v-0.328h-1.106h-0.158H36.396z M40.954,92.229h-0.143v0.213v0.541c0,0.225-0.333,0.225-0.333,0v-0.543  v-0.213c-0.095,0-0.149-0.054-0.149-0.117v-0.573h-1.34l-0.237,0.205h-2.343l-0.236-0.205h-1.342v0.573  c0,0.063-0.055,0.117-0.116,0.117l-0.008,0.213l-0.024,0.541c0,0.226-0.332,0.226-0.332,0v-0.541v-0.213h-0.145l-0.139,0.213  l-1.441,2.224v0.967c0.393-0.507,0.629-0.844,0.799-1.063c0.252-0.323,0.39-0.438,0.687-0.438h0.867h1.049h3.105h1.05h0.867  c0.297,0,0.436,0.115,0.686,0.438c0.234,0.304,0.503,0.709,0.801,1.104v-1.008l-1.442-2.224L40.954,92.229z M32.393,95.346v-0.508  c-0.831,0.049-0.933,0.696-1.038,1.377c-0.039,0.244-0.074,0.504-0.124,0.768c0.12-0.051,0.235-0.11,0.345-0.188  C31.683,96.094,31.809,95.523,32.393,95.346z M34.524,98.58c-0.123,0.145-0.246,0.305-0.322,0.4h0.178h0.268h0.227h0.619h0.84h1.245  h0.919h1.906h0.303h0.199h0.053c-0.072-0.092-0.194-0.248-0.316-0.396c-0.054-0.047-0.121-0.07-0.135-0.07h-5.853  C34.637,98.514,34.576,98.534,34.524,98.58z M40.065,98.25h-1.621h-0.452h-0.398H36.86h-0.592h-0.961h-0.186h-0.107h-0.128  c-0.016,0-0.04,0.01-0.067,0.029h5.521c-0.028-0.021-0.052-0.029-0.066-0.029H40.065z M41.566,47.084l0.347,0.417l0.078,0.094  c0.22,0.221,0.275,0.231,0.413,0.231h2.015c0.139,0,0.193-0.011,0.418-0.235l0.076-0.091l0.117-0.143  c-0.697-0.355-2.271-1.148-3.6-1.818v1.224C41.431,46.951,41.438,46.925,41.566,47.084z M46.21,23.535l-4.887-0.684v0.642  l4.887,0.684V23.535z M46.21,23.249c0-0.308-0.256-0.597-0.564-0.641l-4.465-0.625c-0.298-0.042-0.531,0.161-0.531,0.455v2.593  v0.368c0,0.265,0.189,0.518,0.439,0.61v-0.183v-0.795v-0.288v-1.141v-0.886c0-0.074,0.059-0.125,0.133-0.116l4.988,0.698V23.249z   M42.315,31.227c0.285-0.12,1.314-0.425,4.641-0.612V30.42c-0.85,0.048-1.546,0.103-2.115,0.16  c-0.156,0.016-0.179-0.218-0.023-0.233c0.572-0.058,1.272-0.112,2.125-0.161c-0.029-0.515-0.06-1.098-0.089-1.756  c-0.065-1.392-0.095-2.509-0.103-3.399c-0.014-1.416,0.027-2.249,0.061-2.69l-5.153-0.696c-0.486-0.094-0.919-0.202-1.091-0.745  l-1.332-4.761c0-0.036,0.005-0.08,0.015-0.126l-0.11,0.109v1.532l1.121,3.963c0.062,0.196,0.16,0.312,0.293,0.392  c0.146-0.191,0.387-0.296,0.658-0.258l4.467,0.625c0.199,0.028,0.381,0.128,0.517,0.271c0.155-0.037,0.333,0.027,0.393,0.232  c0.032,0.111,0.065,0.223,0.069,0.339l0.001,1.811v1.18c0,0.565-0.47,0.97-1.024,0.901l-2.559-0.358l-1.308-0.183l-0.249,0.436  l0.416,2.03c0.032,0.153-0.197,0.2-0.229,0.047l-0.363-1.768l-0.193,0.339l0.455,2.206C41.702,30.36,41.819,30.972,42.315,31.227z   M40.417,22.438c0-0.078,0.011-0.151,0.032-0.22c-0.188-0.109-0.329-0.272-0.412-0.533l-0.896-3.17v3.97l0.168,0.245  c0.024,0.037,0.032,0.05,0.037,0.062c0.011,0.024,0.014,0.049,0.013,0.071l0.233,2.168l0.111,1.034  c0.047,0.295,0.188,0.743,0.421,0.923c0.255,0.193,0.606,0.345,0.786,0.416l0.504-0.884l-0.148-0.02  c-0.179-0.025-0.269-0.149-0.284-0.283c-0.326-0.132-0.565-0.462-0.565-0.818v-0.368V22.438z M46.21,25.031v-0.618l-4.887-0.685  v0.905l2.839,0.398l2.048,0.286V25.031z M46.21,26.21v-0.657l-3.736-0.523l-1.15-0.162v0.162v0.685l4.852,0.679  C46.196,26.339,46.21,26.277,46.21,26.21z M41.322,26.055l4.356,0.609c0.119,0.017,0.229-0.006,0.317-0.059l-4.673-0.654V26.055z   M38.146,3.747l1.68-0.45l-0.155-0.418l-0.393,0.105l-0.305-1.138l0.36-0.2L39.186,1.41l-1.428,0.382l-0.01,0.278l0.411-0.007  l0.304,1.138L38.07,3.306L38.146,3.747z M42.907,14.529l-0.104-0.389L41,14.623l0.104,0.388L42.907,14.529z M43.185,14.696  l-2.062,0.552l2.413-0.144l-0.078-0.264C43.423,14.717,43.302,14.664,43.185,14.696z M38.744,0.996  c-0.231,0.043-0.467,0.111-0.692,0.179c-0.033,0.009-0.284,0.071-0.286,0.148l-0.003,0.226l1.298-0.348l-0.115-0.189  C38.913,0.953,38.786,0.988,38.744,0.996z M40.517,14.151l0.036,0.134c0.033,0.111,0.146,0.176,0.258,0.146l1.938-0.519  c0.109-0.031,0.178-0.147,0.146-0.265c-0.007-0.027-0.028-0.104-0.036-0.13c-0.021-0.073-0.076-0.124-0.15-0.141  c-0.021-0.005-0.083-0.008-0.111-0.001l-1.928,0.519C40.559,13.925,40.489,14.039,40.517,14.151z M40.787,12.505l0.548,0.968  l0.602-0.166l-0.018-1.104l0.314-0.185l-0.135-0.252l-1.686,0.451l0.01,0.286L40.787,12.505z M40.09,4.036l-0.184-0.517l-1.719,0.46  l0.101,0.54L40.09,4.036z M40.405,11.976l1.576-0.432c0,0.001-0.424-2.138-0.904-4.206c-0.242-1.042-0.607-2.194-0.91-3.079  L38.333,4.75c0.18,0.918,0.439,2.098,0.75,3.121C39.701,9.902,40.405,11.966,40.405,11.976z M45.782,69.971  c0.436-1.758,0.431-2.779,0.431-2.787c-0.019-0.727-0.569-1.018-1.819-1.552c-0.29,1.222-0.711,2.671-1.344,4.339v0.002  c-0.102,0.266-0.209,0.539-0.32,0.818L43.228,71c0.133-0.344,0.262-0.684,0.387-1.029c0.418-1.156,0.783-2.332,1.074-3.531  c0-0.066,0.054-0.119,0.117-0.119c0.066,0,0.118,0.053,0.118,0.117c-0.286,1.207-0.647,2.381-1.062,3.533  c-0.137,0.383-0.28,0.764-0.43,1.143c0.35,0.436,0.889,1.229,1.25,2.154C45.209,71.996,45.555,70.885,45.782,69.971z M38.534,42.512  l0.196,0.183l1.409-6.429l0.215-0.987c0.052-0.273,0.186-0.572,0.404-0.762H40.46c-0.362,0-0.55,0.422-0.594,0.726l-0.189,1.023  l-0.854,4.608c-0.021,0.114-0.232,0.197-0.289,0.229V42.512z M47.866,35.356v-0.277c0-0.02,0.002-0.04,0.006-0.059v-0.246  c-0.311-0.091-0.478-0.389-0.566-0.722c-0.026-0.082-0.156-0.614-0.316-3.107c-3.401,0.191-4.314,0.482-4.52,0.57l-0.402,2.809  l0.358,0.001l0.203-1.418c0.022-0.154,0.255-0.121,0.231,0.033l-0.197,1.384l0.656-0.002c0.303-0.012,0.732,0.08,0.824,0.422  c0.046,0.169,0.08,0.307,0.102,0.391l3.229-0.009C47.642,35.126,47.789,35.218,47.866,35.356z M39.538,35.186  c0.072-0.469,0.372-1.001,0.922-1.001h0.332v-0.097l-0.491-0.843c-0.02-0.024-0.036-0.046-0.058-0.064  c-0.033-0.018-0.07-0.032-0.105-0.044c-0.033-0.01-0.059-0.027-0.078-0.047c-0.067-0.006-0.137,0.013-0.211,0.051  c-0.57,0.296-1.07,0.561-1.07,0.561s-0.028,0.008-0.044,0.016c-0.16,0.074-0.245,0.254-0.276,0.418l-0.408,2.129l-0.28,1.465  c-0.046,0.125-0.118,0.418-0.032,0.537c0.105,0.151,0.707,0.866,1.005,1.219l0.594-3.22L39.538,35.186z M44.508,65.127l-0.062,0.271  c0.493,0.211,0.908,0.393,1.232,0.592c0.058-0.877-0.216-1.637-0.907-2.258C44.652,64.423,44.539,64.98,44.508,65.127z   M53.077,31.459c-0.073-4.592-0.249-5.484-0.282-5.617c-0.111-0.628-0.324-0.76-0.758-0.76h-3.188c-0.431,0-0.646,0.132-0.758,0.76  c-0.034,0.132-0.209,1.024-0.281,5.617c-0.02,1.203-0.02,2.2-0.008,3.021c-0.125-0.094-0.213-0.262-0.275-0.494  c0,0-0.209-0.54-0.442-5.567c-0.063-1.389-0.092-2.503-0.101-3.388c-0.021-2.33,0.103-3.075,0.103-3.082  c0-0.302,0.243-0.546,0.545-0.546h5.623c0.304,0,0.548,0.245,0.548,0.556c0,0,0.122,0.744,0.102,3.07v0.002  c-0.008,0.884-0.038,1.999-0.102,3.388c-0.232,5.027-0.443,5.567-0.443,5.567c-0.047,0.183-0.125,0.383-0.273,0.494  C53.098,33.659,53.098,32.662,53.077,31.459z M53.027,22.388l-0.004-0.05c-0.024-0.22-0.211-0.392-0.438-0.396h-4.269  c-0.226,0-0.425,0.167-0.454,0.391l-0.001,0.051l0.013,0.045l0.68,1.859c0.094,0.206,0.166,0.405,0.439,0.405h0.047h2.871  c0.257-0.009,0.33-0.207,0.43-0.435l0.67-1.826L53.027,22.388z M44.661,59.135c-0.007,0.084-0.015,0.164-0.026,0.24  c-0.017,0.115-0.038,0.23-0.058,0.346l0.695,0.202c0.073,0.021,0.121,0.095,0.107,0.163l-0.33,1.602  c-0.049,0.571-0.143,1.228-0.24,1.812l0.072,0.061c0.105-0.504,0.627-3.006,0.849-4.084L44.661,59.135z M45.438,47.076  c0.232,0.12,0.404,0.195,0.527,0.243v-0.84c-0.143-0.049-0.348-0.134-0.635-0.282c-0.564-0.291-5.172-2.531-6.394-3.124  l-0.028,0.131l0.473,0.814C39.823,44.241,44.813,46.755,45.438,47.076z M47.19,47.86c-0.4,3.33-1.11,7.033-2.543,10.082  c-0.02-0.254-0.047-0.504-0.077-0.734C44.482,56.525,44.371,56,44.371,56c-0.11-0.449-0.215-0.775-0.663-0.838l-3.411-0.48  c-0.448-0.062-0.638,0.223-0.868,0.625c-0.248,0.465-0.537,1.082-0.77,1.699c-0.375-2.953-0.227-6.34,0.227-9.503v-0.001  c0.146-1.022,0.326-2.022,0.528-2.978l0.399,0.202c-0.184,0.893-0.476,2.776-0.476,2.776c-0.002,0.009-0.002,0.02-0.006,0.03  c-0.03,0.219,0.3,0.265,0.329,0.047c0.006-0.025,0.008-0.05,0.012-0.076c0,0,0.275-1.777,0.448-2.622l1.075,0.542v1.342  c0,0.25,0.031,0.273,0.189,0.468l0.434,0.521c0.243,0.244,0.357,0.308,0.585,0.308h2.015c0.228,0,0.343-0.063,0.588-0.308  l0.209-0.252l0.027-0.034l0.065,0.034l0.022,0.011c0.692,0.355,0.91,0.348,0.91,0.348V47.86H47.19z M45.706,53.443  c0.055-0.213-0.266-0.295-0.32-0.082c-0.263,1.021-0.553,1.979-0.863,2.859c-0.074,0.207,0.239,0.316,0.312,0.108  C45.149,55.441,45.442,54.475,45.706,53.443z M41.865,40.702c0,0.139,0.026,0.228,0.237,0.357l0.794,0.532  c0.212,0.144,0.301,0.173,0.452,0.173l2.631,0.001c0.118,0,0.214-0.097,0.214-0.215v-4.34c0-0.118-0.096-0.214-0.214-0.214h-0.627  v0.729l-0.003,0.045c-0.021,0.104-0.099,0.219-0.245,0.219h-0.322c-0.138,0-0.249-0.112-0.249-0.25v-0.744h-1.368v0.729  l-0.002,0.045c-0.021,0.104-0.1,0.219-0.246,0.219h-0.322c-0.139,0-0.25-0.112-0.25-0.25v-0.744h-0.266  c-0.119,0-0.216,0.096-0.216,0.214L41.865,40.702z M43.368,17.252h0.05c0.302,0,0.547-0.245,0.547-0.546v-1.267l-1.145,0.04v1.227  C42.82,17.008,43.067,17.252,43.368,17.252z M47.688,46.097c0,0.119-0.096,0.215-0.214,0.215h-1.235c0,0-0.188-0.007-0.801-0.323  c-0.58-0.299-5.441-2.662-6.494-3.174l1.434-6.548l0.206-0.939c0.062-0.332,0.287-0.771,0.678-0.771h2.061c0,0,0.036-0.002,0.089,0  c0.838,0.038,0.441,0.814,0.741,0.813l3.322-0.01c0.118,0,0.213,0.096,0.213,0.215v0.691V46.097z M47.09,37.007h-0.002  c0-0.248-0.203-0.449-0.45-0.449h-0.76h-0.584c-0.046-0.053-0.115-0.088-0.189-0.088h-0.322c-0.074,0-0.141,0.035-0.188,0.088  h-1.488c-0.047-0.053-0.114-0.088-0.189-0.088h-0.322c-0.074,0-0.141,0.035-0.187,0.088h-0.943c-0.249,0-0.45,0.201-0.45,0.449  v4.545c0,0.228,0.072,0.385,0.346,0.554l0.79,0.53c0.233,0.159,0.366,0.213,0.583,0.213h3.145c0.226,0,0.343-0.063,0.586-0.308  L46.9,42.02c0.157-0.197,0.19-0.218,0.19-0.468V37.007z M46.638,36.792h-0.5c0.171,0.064,0.291,0.228,0.291,0.419v4.34  c0,0.248-0.201,0.448-0.449,0.448h-2.633c-0.215,0-0.348-0.055-0.58-0.214l-0.791-0.53c-0.273-0.168-0.345-0.326-0.345-0.554  L41.63,37.21c0-0.191,0.119-0.354,0.289-0.419h-0.454c-0.12,0-0.217,0.096-0.217,0.214v4.545c0,0.138,0.027,0.227,0.239,0.357  l0.795,0.533c0.211,0.145,0.299,0.173,0.451,0.173h3.145c0.137,0,0.193-0.011,0.409-0.228l0.429-0.515  c0.129-0.159,0.138-0.133,0.138-0.32v-4.545C46.854,36.888,46.757,36.792,46.638,36.792z M42.933,36.72l-0.338-0.015v1.051h0.322  L42.933,36.72z M47.688,47.184V46.49c-0.063,0.034-0.136,0.055-0.214,0.055h-1.235c0,0-0.012,0-0.039-0.004v0.851  c0.027,0.006,0.039,0.006,0.039,0.006h1.235C47.592,47.398,47.688,47.302,47.688,47.184z M45.119,36.72l-0.337-0.015v1.051h0.322  L45.119,36.72z"/></svg></svg> <defs><filter id="colors6548676869"><feColorMatrix type="matrix" values="0 0 0 0 0.88671875  0 0 0 0 0.765625  0 0 0 0 0.65625  0 0 0 1 0"/></filter> <filter id="colorsf3314128717"><feColorMatrix type="matrix" values="0 0 0 0 0.99609375  0 0 0 0 0.99609375  0 0 0 0 0.99609375  0 0 0 1 0"/></filter> <filter id="colorsb2574839231"><feColorMatrix type="matrix" values="0 0 0 0 0  0 0 0 0 0  0 0 0 0 0  0 0 0 1 0"/></filter></defs></g></g> <g transform="translate(0,65.87803077697754)"><g data-gra="path-name" fill-rule=""><g transform="scale(1)"><g><path d="M44.3-38.74L35.18-38.74 35.18-23.93 12.39-23.93 12.39-38.74 3.27-38.74 3.27 0 12.39 0 12.39-14.81 35.18-14.81 35.18 0 44.3 0 44.3-38.74ZM57.67 0L82.74 0Q85.58 0 87.59-2.01L87.59-2.01Q89.58-4 89.58-6.83L89.58-6.83 89.58-38.74 80.46-38.74 80.46-9.12 59.95-9.12 59.95-38.74 50.83-38.74 50.83-6.83Q50.83-4 52.85-2.01L52.85-2.01Q54.84 0 57.67 0L57.67 0ZM105.23-38.74L96.11-38.74 96.11 0 131.45 0 131.45-9.12 105.23-9.12 105.23-38.74ZM144.82 0L169.9 0Q172.73 0 174.75-2.01L174.75-2.01Q176.73-4 176.73-6.83L176.73-6.83 176.73-38.74 167.61-38.74 167.61-9.12 147.11-9.12 147.11-38.74 137.99-38.74 137.99-6.83Q137.99-4 140-2.01L140-2.01Q141.99 0 144.82 0L144.82 0Z" transform="translate(-3.2699999809265137, 38.7400016784668)"/></g> <!----> <!----> <!----> <!----> <!----> <!----> <!----></g></g> <!----></g></g></g><defs v-gra="od"/></svg>
